<?xml version="1.0" encoding="UTF-8"?>
<svg version="1.1" xmlns="http://www.w3.org/2000/svg" width="200" height="200">
<path d="M0 0 C66 0 132 0 200 0 C200 66 200 132 200 200 C134 200 68 200 0 200 C0 134 0 68 0 0 Z " fill="#FEFEFE" transform="translate(0,0)"/>
<path d="M0 0 C3.26715322 0.43471477 5.10494478 1.20106275 7.90478516 2.90625 C8.82388672 3.45539062 9.74298828 4.00453125 10.68994141 4.5703125 C12.16914062 5.47910156 12.16914062 5.47910156 13.67822266 6.40625 C15.83617406 7.69942433 17.99506687 8.99102869 20.15478516 10.28125 C21.28303711 10.95929687 22.41128906 11.63734375 23.57373047 12.3359375 C28.76469913 15.43920622 34.02689973 18.41769293 39.2862854 21.4029541 C49.71029717 27.32187862 60.08763006 33.31794796 70.42993164 39.37866211 C75.25926242 42.20543853 80.09908599 45.01013354 84.96728516 47.76953125 C85.91804932 48.30868164 86.86881348 48.84783203 87.84838867 49.40332031 C89.62814145 50.41009356 91.40973665 51.41362042 93.19360352 52.41308594 C106.45404357 59.91270082 106.45404357 59.91270082 107.80151367 63.27148438 C108.09691943 65.70349605 107.98183643 67.13240573 107.05322266 69.40625 C105.40649414 70.87158203 105.40649414 70.87158203 103.23681641 72.2265625 C102.41938965 72.74049561 101.60196289 73.25442871 100.75976562 73.78393555 C95.90849977 76.69180688 91.02837664 79.54076996 86.11572266 82.34375 C84.38587705 83.33617138 82.65603423 84.32859765 80.92636108 85.32131958 C79.14382394 86.34389091 77.36054069 87.36515134 75.57714844 88.38623047 C70.06132502 91.54594897 64.55797926 94.72730539 59.05322266 97.90625 C52.449275 101.71748845 45.84437269 105.527052 39.23681641 109.33203125 C37.55604004 110.30064087 37.55604004 110.30064087 35.84130859 111.28881836 C33.63319999 112.56068506 31.42423508 113.83106645 29.21435547 115.09985352 C24.39488008 117.8724946 19.59510488 120.66533914 14.85400391 123.5703125 C14.07549072 124.04364014 13.29697754 124.51696777 12.49487305 125.00463867 C11.08984752 125.86311756 9.69120485 126.73218466 8.30102539 127.61450195 C4.41608852 129.98162203 1.6021771 131.2258242 -2.94677734 130.40625 C-5.45009135 128.40454346 -6.78012644 127.19630416 -7.45014191 124.01991272 C-7.45165001 123.12912521 -7.45315811 122.23833771 -7.45471191 121.32055664 C-7.46599121 120.29431183 -7.47727051 119.26806702 -7.4888916 118.21072388 C-7.48079468 117.09059906 -7.47269775 115.97047424 -7.46435547 114.81640625 C-7.47486938 113.04026443 -7.47486938 113.04026443 -7.4855957 111.22824097 C-7.50018269 107.98429011 -7.49676643 104.74099227 -7.48407936 101.49705124 C-7.47394617 98.10096625 -7.48334591 94.70492461 -7.48962402 91.30883789 C-7.49689955 85.60587745 -7.48731542 79.90312428 -7.46826172 74.20019531 C-7.44649289 67.60851844 -7.45354434 61.01733646 -7.47556734 54.42567158 C-7.49372424 48.76438571 -7.49627833 43.10324875 -7.48581266 37.44194317 C-7.47957922 34.06148352 -7.47873768 30.68125643 -7.49195862 27.30081177 C-7.502094 23.53222993 -7.48666326 19.76460421 -7.46435547 15.99609375 C-7.47245239 14.87596893 -7.48054932 13.75584412 -7.4888916 12.60177612 C-7.4776123 11.57553131 -7.46633301 10.5492865 -7.45471191 9.49194336 C-7.45320381 8.60115585 -7.45169571 7.71036835 -7.45014191 6.79258728 C-6.55374784 2.54298624 -4.21554676 0.58116568 0 0 Z " fill="#DE0818" transform="translate(56.94677734375,34.59375)"/>
<path d="M0 0 C0.68384766 0.05671875 1.36769531 0.1134375 2.07226562 0.171875 C3.73667046 0.31154534 5.39976886 0.46664465 7.0625 0.625 C7.105221 2.29111905 7.10313832 3.95882885 7.0625 5.625 C6.0625 6.625 6.0625 6.625 3 6.6875 C2.030625 6.666875 1.06125 6.64625 0.0625 6.625 C0.0625 7.285 0.0625 7.945 0.0625 8.625 C2.0425 8.625 4.0225 8.625 6.0625 8.625 C6.0625 10.605 6.0625 12.585 6.0625 14.625 C4.0825 14.625 2.1025 14.625 0.0625 14.625 C0.0625 15.285 0.0625 15.945 0.0625 16.625 C2.3725 16.625 4.6825 16.625 7.0625 16.625 C7.0625 14.975 7.0625 13.325 7.0625 11.625 C7.990625 11.728125 8.91875 11.83125 9.875 11.9375 C11.4528125 11.7828125 11.4528125 11.7828125 13.0625 11.625 C14.9979148 9.23443058 14.9979148 9.23443058 16.0625 6.625 C13.7525 6.295 11.4425 5.965 9.0625 5.625 C9.0625 4.305 9.0625 2.985 9.0625 1.625 C26.25218074 0.34150384 26.25218074 0.34150384 34.0625 0.625 C35.361875 0.66625 36.66125 0.7075 38 0.75 C41.0625 1.625 41.0625 1.625 43 4.5625 C44.0625 7.625 44.0625 7.625 44.0625 9.625 C44.7225 9.625 45.3825 9.625 46.0625 9.625 C46.43375 8.1709375 46.43375 8.1709375 46.8125 6.6875 C47.225 5.676875 47.6375 4.66625 48.0625 3.625 C50.1875 2.75 50.1875 2.75 52.0625 2.625 C51.64511242 5.61627768 51.23829063 8.23205625 50 11 C48.69498555 14.65404046 48.93133116 17.75551932 49.0625 21.625 C49.7225 21.625 50.3825 21.625 51.0625 21.625 C51.5575 22.615 51.5575 22.615 52.0625 23.625 C53.7125 23.625 55.3625 23.625 57.0625 23.625 C57.5575 22.14 57.5575 22.14 58.0625 20.625 C59.3825 20.625 60.7025 20.625 62.0625 20.625 C62.0625 19.965 62.0625 19.305 62.0625 18.625 C65.0325 17.965 68.0025 17.305 71.0625 16.625 C66.29522383 20.8128844 60.86838865 23.76145904 55.375 26.875 C54.41271484 27.42929688 53.45042969 27.98359375 52.45898438 28.5546875 C51.54052734 29.07804687 50.62207031 29.60140625 49.67578125 30.140625 C48.83829346 30.61790039 48.00080566 31.09517578 47.13793945 31.58691406 C45.0625 32.625 45.0625 32.625 43.0625 32.625 C43.0625 31.965 43.0625 31.305 43.0625 30.625 C44.3825 29.965 45.7025 29.305 47.0625 28.625 C47.0625 26.645 47.0625 24.665 47.0625 22.625 C45.0825 22.955 43.1025 23.285 41.0625 23.625 C40.5675 22.14 40.5675 22.14 40.0625 20.625 C40.7225 20.625 41.3825 20.625 42.0625 20.625 C42.05338808 14.54206791 42.05338808 14.54206791 39 9.6875 C38.0409375 9.1615625 38.0409375 9.1615625 37.0625 8.625 C37.0625 7.965 37.0625 7.305 37.0625 6.625 C36.4025 6.625 35.7425 6.625 35.0625 6.625 C33.46854084 8.87383311 33.46854084 8.87383311 31.9375 11.625 C31.39867188 12.553125 30.85984375 13.48125 30.3046875 14.4375 C29.89476562 15.159375 29.48484375 15.88125 29.0625 16.625 C31.3725 16.955 33.6825 17.285 36.0625 17.625 C36.0625 18.615 36.0625 19.605 36.0625 20.625 C26.8225 20.625 17.5825 20.625 8.0625 20.625 C8.0625 25.905 8.0625 31.185 8.0625 36.625 C2.61670789 39.34789606 1.31353768 39.98556698 -4.25 39.75 C-6.14500144 39.68007375 -8.04121802 39.63089823 -9.9375 39.625 C-10.2675 39.955 -10.5975 40.285 -10.9375 40.625 C-13.46157039 40.61595315 -15.97134749 40.49212709 -18.4921875 40.3671875 C-21.01367581 40.40488476 -21.01367581 40.40488476 -22.7578125 42.1328125 C-23.14710937 42.62523437 -23.53640625 43.11765625 -23.9375 43.625 C-23.9375 42.635 -23.9375 41.645 -23.9375 40.625 C-24.5975 40.625 -25.2575 40.625 -25.9375 40.625 C-25.9375 41.615 -25.9375 42.605 -25.9375 43.625 C-26.5975 43.625 -27.2575 43.625 -27.9375 43.625 C-28.06125 42.696875 -28.06125 42.696875 -28.1875 41.75 C-28.84964206 39.09010021 -28.84964206 39.09010021 -32.9375 37.625 C-32.9375 34.655 -32.9375 31.685 -32.9375 28.625 C-31.6175 28.295 -30.2975 27.965 -28.9375 27.625 C-29.2675 26.965 -29.5975 26.305 -29.9375 25.625 C-29.2775 25.625 -28.6175 25.625 -27.9375 25.625 C-29.77938612 23.57229537 -29.77938612 23.57229537 -31.9375 22.625 C-31.9375 15.695 -31.9375 8.765 -31.9375 1.625 C-26.4925 1.13 -26.4925 1.13 -20.9375 0.625 C-20.6075 1.285 -20.2775 1.945 -19.9375 2.625 C-17.10678723 2.11032495 -14.48590682 1.47446894 -11.75 0.5625 C-7.55649232 -0.46869041 -4.28849997 -0.37951327 0 0 Z " fill="#C91623" transform="translate(90.9375,88.375)"/>
<path d="M0 0 C0.66 0.66 1.32 1.32 2 2 C4.58354218 2.16687448 4.58354218 2.16687448 7 2 C7 2.99 7 3.98 7 5 C8.32 5 9.64 5 11 5 C11 8.63 11 12.26 11 16 C9.35 16.33 7.7 16.66 6 17 C6 18.65 6 20.3 6 22 C6.66 22.33 7.32 22.66 8 23 C8 23.66 8 24.32 8 25 C8.99 25.33 9.98 25.66 11 26 C10.67 27.32 10.34 28.64 10 30 C9.01 30 8.02 30 7 30 C6.67 31.32 6.34 32.64 6 34 C3.69 33.34 1.38 32.68 -1 32 C-0.67 31.34 -0.34 30.68 0 30 C0.99 30 1.98 30 3 30 C3 29.34 3 28.68 3 28 C0.52372901 28.63921965 0.52372901 28.63921965 -2 30 C-3.36078035 32.52372901 -3.36078035 32.52372901 -4 35 C-2.68 35.33 -1.36 35.66 0 36 C-1 37 -1 37 -3.4375 37.1875 C-6 37 -6 37 -8 35 C-8 33.68 -8 32.36 -8 31 C-8.66 31 -9.32 31 -10 31 C-9.67 32.65 -9.34 34.3 -9 36 C-9.99 36.495 -9.99 36.495 -11 37 C-11 34.03 -11 31.06 -11 28 C-9.68 27.67 -8.36 27.34 -7 27 C-7.33 26.34 -7.66 25.68 -8 25 C-7.34 25 -6.68 25 -6 25 C-7.84188612 22.94729537 -7.84188612 22.94729537 -10 22 C-10 15.07 -10 8.14 -10 1 C-6.7 0.67 -3.4 0.34 0 0 Z " fill="#D0111F" transform="translate(69,89)"/>
<path d="M0 0 C1.07411133 -0.00580078 1.07411133 -0.00580078 2.16992188 -0.01171875 C6.66558404 -0.00353738 11.02717191 0.16163288 15.4375 1.125 C17.24592924 3.86681207 18.4375 5.80367293 18.4375 9.125 C19.0975 9.125 19.7575 9.125 20.4375 9.125 C20.685 8.155625 20.9325 7.18625 21.1875 6.1875 C21.80625 4.6715625 21.80625 4.6715625 22.4375 3.125 C24.5625 2.25 24.5625 2.25 26.4375 2.125 C26.02011242 5.11627768 25.61329063 7.73205625 24.375 10.5 C23.06998555 14.15404046 23.30633116 17.25551932 23.4375 21.125 C24.0975 21.125 24.7575 21.125 25.4375 21.125 C25.9325 22.115 25.9325 22.115 26.4375 23.125 C28.0875 23.125 29.7375 23.125 31.4375 23.125 C31.9325 21.64 31.9325 21.64 32.4375 20.125 C33.7575 20.125 35.0775 20.125 36.4375 20.125 C36.4375 19.465 36.4375 18.805 36.4375 18.125 C39.4075 17.465 42.3775 16.805 45.4375 16.125 C40.67022383 20.3128844 35.24338865 23.26145904 29.75 26.375 C28.78771484 26.92929688 27.82542969 27.48359375 26.83398438 28.0546875 C25.91552734 28.57804687 24.99707031 29.10140625 24.05078125 29.640625 C22.79454956 30.35653809 22.79454956 30.35653809 21.51293945 31.08691406 C19.4375 32.125 19.4375 32.125 17.4375 32.125 C17.4375 31.465 17.4375 30.805 17.4375 30.125 C18.7575 29.465 20.0775 28.805 21.4375 28.125 C21.4375 26.145 21.4375 24.165 21.4375 22.125 C18.4675 22.62 18.4675 22.62 15.4375 23.125 C15.1075 22.135 14.7775 21.145 14.4375 20.125 C15.0975 20.125 15.7575 20.125 16.4375 20.125 C16.42838808 14.04206791 16.42838808 14.04206791 13.375 9.1875 C12.735625 8.836875 12.09625 8.48625 11.4375 8.125 C11.4375 7.465 11.4375 6.805 11.4375 6.125 C10.7775 6.125 10.1175 6.125 9.4375 6.125 C7.84354084 8.37383311 7.84354084 8.37383311 6.3125 11.125 C5.77367188 12.053125 5.23484375 12.98125 4.6796875 13.9375 C4.26976563 14.659375 3.85984375 15.38125 3.4375 16.125 C5.7475 16.455 8.0575 16.785 10.4375 17.125 C10.4375 18.115 10.4375 19.105 10.4375 20.125 C5.4875 20.125 0.5375 20.125 -4.5625 20.125 C-4.5625 19.135 -4.5625 18.145 -4.5625 17.125 C-7.2025 17.125 -9.8425 17.125 -12.5625 17.125 C-12.06878906 16.29355469 -11.57507813 15.46210937 -11.06640625 14.60546875 C-10.42574219 13.51878906 -9.78507812 12.43210937 -9.125 11.3125 C-8.48691406 10.23355469 -7.84882812 9.15460938 -7.19140625 8.04296875 C-5.481733 5.19319358 -5.481733 5.19319358 -4.5625 2.125 C-8.5225 2.125 -12.4825 2.125 -16.5625 2.125 C-16.5625 1.795 -16.5625 1.465 -16.5625 1.125 C-10.99724829 0.33444564 -5.61751142 -0.03050232 0 0 Z " fill="#C51520" transform="translate(116.5625,88.875)"/>
<path d="M0 0 C0.99 0 1.98 0 3 0 C3.33 1.98 3.66 3.96 4 6 C9.445 6.495 9.445 6.495 15 7 C14.34 5.68 13.68 4.36 13 3 C11.02 3.33 9.04 3.66 7 4 C7 3.01 7 2.02 7 1 C10.25 0.25 10.25 0.25 14 0 C16.4375 1.5625 16.4375 1.5625 18 4 C18.25 7.25 18.25 7.25 18 10 C14.07449945 11.85370859 11.07004418 12.19550629 6.75 12.0625 C4.83397367 12.0087578 2.91666943 11.97942226 1 12 C0.67 12.33 0.34 12.66 0 13 C-2.52407039 12.99095315 -5.03384749 12.86712709 -7.5546875 12.7421875 C-10.07617581 12.77988476 -10.07617581 12.77988476 -11.8203125 14.5078125 C-12.20960937 15.00023437 -12.59890625 15.49265625 -13 16 C-13 15.01 -13 14.02 -13 13 C-13.66 13 -14.32 13 -15 13 C-15 13.99 -15 14.98 -15 16 C-15.66 16 -16.32 16 -17 16 C-17.1546875 15.13375 -17.1546875 15.13375 -17.3125 14.25 C-17.88220468 11.90446082 -17.88220468 11.90446082 -19.5625 10 C-21 8 -21 8 -21 4 C-20.34 4 -19.68 4 -19 4 C-18.34 5.65 -17.68 7.3 -17 9 C-15.35 9 -13.7 9 -12 9 C-12.99 8.67 -13.98 8.34 -15 8 C-14.25 3.25 -14.25 3.25 -12 1 C-10.68 1 -9.36 1 -8 1 C-8 1.66 -8 2.32 -8 3 C-8.99 3.33 -9.98 3.66 -11 4 C-9.02 4.66 -7.04 5.32 -5 6 C-4.67 5.01 -4.34 4.02 -4 3 C-3.01 3 -2.02 3 -1 3 C-0.67 2.01 -0.34 1.02 0 0 Z " fill="#D61D29" transform="translate(80,116)"/>
<path d="M0 0 C9 0 9 0 12.0625 1.4375 C14.51746913 4.68439466 14.73029612 6.80136025 14.47265625 10.8046875 C14 13 14 13 12.0625 16.0625 C9 18 9 18 0 18 C0 12.06 0 6.12 0 0 Z " fill="#FEDCDF" transform="translate(59,91)"/>
<path d="M0 0 C1.875 0.125 1.875 0.125 4 1 C5.25 4.0625 5.25 4.0625 6 7 C6.66 7 7.32 7 8 7 C8.37125 5.5459375 8.37125 5.5459375 8.75 4.0625 C9.1625 3.051875 9.575 2.04125 10 1 C12.125 0.125 12.125 0.125 14 0 C13.58261242 2.99127768 13.17579063 5.60705625 11.9375 8.375 C10.63248555 12.02904046 10.86883116 15.13051932 11 19 C11.66 19 12.32 19 13 19 C13.33 19.66 13.66 20.32 14 21 C15.65 21 17.3 21 19 21 C19.33 20.01 19.66 19.02 20 18 C21.32 18 22.64 18 24 18 C24 17.34 24 16.68 24 16 C26.97 15.34 29.94 14.68 33 14 C28.23272383 18.1878844 22.80588865 21.13645904 17.3125 24.25 C16.35021484 24.80429688 15.38792969 25.35859375 14.39648438 25.9296875 C13.47802734 26.45304687 12.55957031 26.97640625 11.61328125 27.515625 C10.77579346 27.99290039 9.93830566 28.47017578 9.07543945 28.96191406 C7 30 7 30 5 30 C5 29.34 5 28.68 5 28 C6.32 27.34 7.64 26.68 9 26 C9 24.02 9 22.04 9 20 C7.02 20.33 5.04 20.66 3 21 C2.67 20.01 2.34 19.02 2 18 C2.66 18 3.32 18 4 18 C3.69620228 9.49211669 3.69620228 9.49211669 0 2 C0 1.34 0 0.68 0 0 Z " fill="#D11625" transform="translate(129,91)"/>
<path d="M0 0 C2.31 0 4.62 0 7 0 C7 5.66666667 7 11.33333333 7 17 C7.495 17.45375 7.99 17.9075 8.5 18.375 C10 20 10 20 10 24 C12.64 24 15.28 24 18 24 C18 24.33 18 24.66 18 25 C15.69 25.33 13.38 25.66 11 26 C11.33 26.66 11.66 27.32 12 28 C12.78375 27.79375 13.5675 27.5875 14.375 27.375 C15.674375 27.189375 15.674375 27.189375 17 27 C19 29 19 29 19 32 C17.18757948 32.02687279 15.37504767 32.04633715 13.5625 32.0625 C12.55316406 32.07410156 11.54382813 32.08570313 10.50390625 32.09765625 C8 32 8 32 7 31 C6.95919217 29.00041636 6.95745644 26.99954746 7 25 C6.4225 24.896875 5.845 24.79375 5.25 24.6875 C2.59424155 23.87601825 1.03131165 22.89122119 -1 21 C-1.8125 18.9375 -1.8125 18.9375 -2 17 C-1.67 16.34 -1.34 15.68 -1 15 C0.32 14.67 1.64 14.34 3 14 C3.33 10.37 3.66 6.74 4 3 C2.68 3 1.36 3 0 3 C0 2.01 0 1.02 0 0 Z " fill="#D60E1B" transform="translate(76,91)"/>
<path d="M0 0 C3.63 0 7.26 0 11 0 C11 0.99 11 1.98 11 3 C8.69 3 6.38 3 4 3 C4 4.32 4 5.64 4 7 C5.98 7 7.96 7 10 7 C10 7.99 10 8.98 10 10 C7.69 10 5.38 10 3 10 C3.33 11.32 3.66 12.64 4 14 C6.31 14.33 8.62 14.66 11 15 C11 15.99 11 16.98 11 18 C3.61623109 18.36313618 3.61623109 18.36313618 1.25 16.96875 C-0.6852623 13.92071188 -0.31438487 10.79695387 -0.1875 7.3125 C-0.17396484 6.61060547 -0.16042969 5.90871094 -0.14648438 5.18554688 C-0.11120182 3.45670171 -0.05739583 1.72825235 0 0 Z " fill="#FBC9CF" transform="translate(86,91)"/>
<path d="M0 0 C0.99 0.33 1.98 0.66 3 1 C3.33 1.99 3.66 2.98 4 4 C4.99 4.66 5.98 5.32 7 6 C6.67 7.32 6.34 8.64 6 10 C4.68 9.67 3.36 9.34 2 9 C2.20625 9.5775 2.4125 10.155 2.625 10.75 C3 13 3 13 1 17 C-3.29 17 -7.58 17 -12 17 C-12 16.34 -12 15.68 -12 15 C-7.71 15 -3.42 15 1 15 C1 14.01 1 13.02 1 12 C-1.64 12 -4.28 12 -7 12 C-6.02296079 10.1863523 -5.04330895 8.37411183 -4.0625 6.5625 C-3.51722656 5.55316406 -2.97195312 4.54382813 -2.41015625 3.50390625 C-1 1 -1 1 0 0 Z " fill="#D50C1A" transform="translate(126,94)"/>
<path d="M0 0 C4.29 0 8.58 0 13 0 C11.58022512 4.25932463 10.6974968 6.83013646 8.375 10.375 C7.70597656 11.40753906 7.70597656 11.40753906 7.0234375 12.4609375 C6.68570313 12.96882813 6.34796875 13.47671875 6 14 C8.31 14.33 10.62 14.66 13 15 C13 15.99 13 16.98 13 18 C8.71 18 4.42 18 0 18 C1.52510352 14.18724121 3.00757127 11.13982945 5.125 7.6875 C5.66382812 6.80449219 6.20265625 5.92148438 6.7578125 5.01171875 C7.16773437 4.34785156 7.57765625 3.68398437 8 3 C5.36 3 2.72 3 0 3 C0 2.01 0 1.02 0 0 Z " fill="#FDC7CA" transform="translate(114,91)"/>
<path d="M0 0 C3.96 0 7.92 0 12 0 C11.09353725 4.53231376 10.45887001 6.21820658 7.9375 9.8125 C7.11572266 10.99779297 7.11572266 10.99779297 6.27734375 12.20703125 C5.85582031 12.79871094 5.43429688 13.39039062 5 14 C7.31 14.33 9.62 14.66 12 15 C12 15.99 12 16.98 12 18 C8.04 18 4.08 18 0 18 C0.94174603 14.23301587 2.04997107 12.00430209 4.0625 8.75 C4.61035156 7.85796875 5.15820312 6.9659375 5.72265625 6.046875 C6.35494141 5.03367187 6.35494141 5.03367187 7 4 C4.69 3.67 2.38 3.34 0 3 C0 2.01 0 1.02 0 0 Z " fill="#FED0D3" transform="translate(100,91)"/>
<path d="M0 0 C1.875 0.125 1.875 0.125 4 1 C5.25 4.0625 5.25 4.0625 6 7 C6.66 7 7.32 7 8 7 C8.37125 5.5459375 8.37125 5.5459375 8.75 4.0625 C9.1625 3.051875 9.575 2.04125 10 1 C12.125 0.125 12.125 0.125 14 0 C12.18965517 4.65517241 12.18965517 4.65517241 10.96875 6.875 C9.89103379 9.23902266 9.60264981 11.16996887 9.375 13.75 C9.30023438 14.54921875 9.22546875 15.3484375 9.1484375 16.171875 C9.09945312 16.77515625 9.05046875 17.3784375 9 18 C7.68 18 6.36 18 5 18 C4.96132812 17.14728516 4.96132812 17.14728516 4.921875 16.27734375 C4.49285581 10.43683251 3.11860383 6.92940606 0 2 C0 1.34 0 0.68 0 0 Z " fill="#F8C7C9" transform="translate(129,91)"/>
<path d="M0 0 C1.98 0 3.96 0 6 0 C8 2 8 2 8.25 5.4375 C8 9 8 9 6 12 C4.02 12 2.04 12 0 12 C0 8.04 0 4.08 0 0 Z " fill="#D21626" transform="translate(62,94)"/>
<path d="M0 0 C0.66 0 1.32 0 2 0 C2.33 1.98 2.66 3.96 3 6 C6.63 6.33 10.26 6.66 14 7 C13.34 5.68 12.68 4.36 12 3 C10.02 3.33 8.04 3.66 6 4 C6 3.01 6 2.02 6 1 C9.25 0.25 9.25 0.25 13 0 C15.4375 1.625 15.4375 1.625 17 4 C17.09765625 6.6484375 17.09765625 6.6484375 17 9 C14.35409986 9.02684679 11.70846904 9.04676357 9.0625 9.0625 C7.93038086 9.07506836 7.93038086 9.07506836 6.77539062 9.08789062 C4.85005687 9.09652441 2.92464419 9.05224333 1 9 C0 8 0 8 -0.09765625 6.15234375 C-0.06510417 4.1015625 -0.03255208 2.05078125 0 0 Z " fill="#FFE3E4" transform="translate(81,116)"/>
<path d="M0 0 C1.32 0 2.64 0 4 0 C4 0.66 4 1.32 4 2 C3.01 2.33 2.02 2.66 1 3 C2.32 3.33 3.64 3.66 5 4 C4.6875 6.375 4.6875 6.375 4 9 C0.29584707 11.46943529 -1.62144505 11.46913089 -6 11 C-7.9375 9.25 -7.9375 9.25 -9 7 C-9 5.68 -9 4.36 -9 3 C-8.34 3 -7.68 3 -7 3 C-6.34 4.65 -5.68 6.3 -5 8 C-3.35 8 -1.7 8 0 8 C-0.99 7.67 -1.98 7.34 -3 7 C-2.25 2.25 -2.25 2.25 0 0 Z " fill="#FED8DE" transform="translate(68,117)"/>
<path d="M0 0 C2.31 0 4.62 0 7 0 C7 0.33 7 0.66 7 1 C5.02 1 3.04 1 1 1 C1 1.66 1 2.32 1 3 C2.98 3 4.96 3 7 3 C7 4.98 7 6.96 7 9 C5.02 9 3.04 9 1 9 C1 9.66 1 10.32 1 11 C3.31 11 5.62 11 8 11 C8 9.35 8 7.7 8 6 C9.65 6 11.3 6 13 6 C13 9.69418201 11.71820705 11.77836178 10 15 C9.01 14.67 8.02 14.34 7 14 C7 13.34 7 12.68 7 12 C4.69 12 2.38 12 0 12 C-0.33 10.35 -0.66 8.7 -1 7 C1.31 7 3.62 7 6 7 C6 6.01 6 5.02 6 4 C4.02 4 2.04 4 0 4 C0 2.68 0 1.36 0 0 Z " fill="#CB1E2B" transform="translate(90,94)"/>
<path d="M0 0 C2.31 0 4.62 0 7 0 C7.0809723 2.43816585 7.14046972 4.87364384 7.1875 7.3125 C7.22520508 8.34793945 7.22520508 8.34793945 7.26367188 9.40429688 C7.33760056 14.50537593 7.33760056 14.50537593 5.65625 16.96875 C3.38225373 18.38463447 1.62238667 18.21262595 -1 18 C-1 17.01 -1 16.02 -1 15 C0.32 14.67 1.64 14.34 3 14 C3.33 10.37 3.66 6.74 4 3 C2.68 3 1.36 3 0 3 C0 2.01 0 1.02 0 0 Z " fill="#FEE0E5" transform="translate(76,91)"/>
<path d="M0 0 C2.31 0 4.62 0 7 0 C5.68552225 3.56425699 4.11594205 6.59724634 2 9.75 C1.484375 10.52859375 0.96875 11.3071875 0.4375 12.109375 C-1 14 -1 14 -3 15 C-3 14.01 -3 13.02 -3 12 C-5.64 12 -8.28 12 -11 12 C-9.35 9.36 -7.7 6.72 -6 4 C-5.67 4.66 -5.34 5.32 -5 6 C-5.9375 8.125 -5.9375 8.125 -7 10 C-4.69 10 -2.38 10 0 10 C0 9.34 0 8.68 0 8 C0.66 8 1.32 8 2 8 C1.34 5.36 0.68 2.72 0 0 Z " fill="#C91C2C" transform="translate(115,94)"/>
<path d="M0 0 C0.99 0.33 1.98 0.66 3 1 C3.33 3.31 3.66 5.62 4 8 C3.34 8 2.68 8 2 8 C2 8.66 2 9.32 2 10 C-0.70879335 11.35439668 -3.00933268 11.06501451 -6 11 C-3.25 4.125 -3.25 4.125 -1 3 C-0.67 2.01 -0.34 1.02 0 0 Z " fill="#E00716" transform="translate(113,94)"/>
<path d="M0 0 C0.66 0 1.32 0 2 0 C2.125 3.375 2.125 3.375 2 7 C1.34 7.66 0.68 8.32 0 9 C-0.969375 8.979375 -1.93875 8.95875 -2.9375 8.9375 C-6.0014605 8.68924439 -6.0014605 8.68924439 -7.875 10.5 C-8.24625 10.995 -8.6175 11.49 -9 12 C-9 11.01 -9 10.02 -9 9 C-9.66 9 -10.32 9 -11 9 C-11 9.99 -11 10.98 -11 12 C-11.66 12 -12.32 12 -13 12 C-12.67 10.68 -12.34 9.36 -12 8 C-10.3603125 7.62875 -10.3603125 7.62875 -8.6875 7.25 C-4.8558675 5.95114153 -3.98726458 5.34697192 -2 2 C-1.34 1.34 -0.68 0.68 0 0 Z " fill="#DB4751" transform="translate(76,120)"/>
<path d="M0 0 C0.66 0.33 1.32 0.66 2 1 C1.67 1.66 1.34 2.32 1 3 C6.94 3.99 6.94 3.99 13 5 C12.67 6.32 12.34 7.64 12 9 C8.7 9 5.4 9 2 9 C0.50178941 5.62902617 0 3.79557881 0 0 Z " fill="#E00717" transform="translate(84,106)"/>
<path d="M0 0 C1.32 0.66 2.64 1.32 4 2 C0.87907566 3.84033976 -2.24738217 5.67106256 -5.375 7.5 C-6.26445313 8.02464844 -7.15390625 8.54929688 -8.0703125 9.08984375 C-8.92109375 9.58613281 -9.771875 10.08242187 -10.6484375 10.59375 C-11.82672119 11.28500977 -11.82672119 11.28500977 -13.02880859 11.99023438 C-15 13 -15 13 -17 13 C-16.75 11.125 -16.75 11.125 -16 9 C-13.04454879 6.88896342 -10.56144099 6.80214217 -7 7 C-7 6.01 -7 5.02 -7 4 C-3.535 3.505 -3.535 3.505 0 3 C0 2.01 0 1.02 0 0 Z " fill="#CF1A2A" transform="translate(130,120)"/>
<path d="M0 0 C0.62003906 0.3403125 1.24007812 0.680625 1.87890625 1.03125 C9.88746926 5.41439366 17.93921904 9.71397072 26 14 C22.98968256 14.93423645 22.13349732 15.04449911 19 14 C19 13.34 19 12.68 19 12 C18.01 12 17.02 12 16 12 C16 11.34 16 10.68 16 10 C14.824375 10.0928125 14.824375 10.0928125 13.625 10.1875 C12.325625 10.0946875 12.325625 10.0946875 11 10 C10.34 9.01 9.68 8.02 9 7 C6.97443739 5.87330669 4.90263613 4.98486921 2.77734375 4.0625 C1 3 1 3 0 0 Z " fill="#CD2132" transform="translate(128,75)"/>
<path d="M0 0 C0.33 0 0.66 0 1 0 C1 1.65 1 3.3 1 5 C2.36125 4.2265625 2.36125 4.2265625 3.75 3.4375 C7 2 7 2 9.375 2.3125 C9.91125 2.539375 10.4475 2.76625 11 3 C11.33 4.32 11.66 5.64 12 7 C10.18757948 7.02687279 8.37504767 7.04633715 6.5625 7.0625 C5.55316406 7.07410156 4.54382813 7.08570312 3.50390625 7.09765625 C1 7 1 7 0 6 C-0.04080783 4.00041636 -0.04254356 1.99954746 0 0 Z " fill="#C62D3B" transform="translate(83,116)"/>
<path d="M0 0 C0.66 0 1.32 0 2 0 C2.12375 0.804375 2.2475 1.60875 2.375 2.4375 C2.684375 3.7059375 2.684375 3.7059375 3 5 C3.66 5.33 4.32 5.66 5 6 C5 6.66 5 7.32 5 8 C5.99 8.33 6.98 8.66 8 9 C7.67 10.32 7.34 11.64 7 13 C6.01 13 5.02 13 4 13 C4 12.01 4 11.02 4 10 C2.02 9.01 0.04 8.02 -2 7 C-1.67 6.01 -1.34 5.02 -1 4 C-0.65772583 2.66893378 -0.32248257 1.33599921 0 0 Z " fill="#E11A2B" transform="translate(72,106)"/>
<path d="M0 0 C3.77545388 1.09068668 6.47043472 1.9083091 9 5 C7.35 5 5.7 5 4 5 C3.34 6.32 2.68 7.64 2 9 C1.01 8.67 0.02 8.34 -1 8 C-1.04241723 5.66705225 -1.04092937 3.33297433 -1 1 C-0.67 0.67 -0.34 0.34 0 0 Z " fill="#D60F20" transform="translate(61,37)"/>
<path d="M0 0 C1.32 0 2.64 0 4 0 C4 3.3 4 6.6 4 10 C2.68 10 1.36 10 0 10 C0 6.7 0 3.4 0 0 Z " fill="#E10715" transform="translate(75,95)"/>
<path d="M0 0 C-5.28 2.97 -10.56 5.94 -16 9 C-16.33 8.01 -16.66 7.02 -17 6 C-16.01 6 -15.02 6 -14 6 C-13.67 5.01 -13.34 4.02 -13 3 C-11.68 3 -10.36 3 -9 3 C-9 2.34 -9 1.68 -9 1 C-3.375 -1.125 -3.375 -1.125 0 0 Z " fill="#CC1A2B" transform="translate(162,106)"/>
<path d="M0 0 C-2.45518735 1.50537035 -4.9138452 3.00444426 -7.375 4.5 C-8.07367188 4.92925781 -8.77234375 5.35851562 -9.4921875 5.80078125 C-14.7734375 9 -14.7734375 9 -17 9 C-17 8.34 -17 7.68 -17 7 C-16.01 7 -15.02 7 -14 7 C-14 6.34 -14 5.68 -14 5 C-8.25 2 -8.25 2 -6 2 C-6 1.34 -6 0.68 -6 0 C-3.50907189 -1.24546405 -2.58919267 -0.7767578 0 0 Z " fill="#CA1F31" transform="translate(113,134)"/>
<path d="M0 0 C0.66 0.66 1.32 1.32 2 2 C4.32275177 2.40047444 6.65739357 2.7397104 9 3 C9 3.99 9 4.98 9 6 C1.25 6.125 1.25 6.125 -1 5 C-0.67 3.35 -0.34 1.7 0 0 Z " fill="#FFD1D4" transform="translate(88,103)"/>
<path d="M0 0 C1.32 0 2.64 0 4 0 C4 1.32 4 2.64 4 4 C4.66 4 5.32 4 6 4 C6.33 3.01 6.66 2.02 7 1 C7 2.32 7 3.64 7 5 C8.32 5.33 9.64 5.66 11 6 C10 7 10 7 7.5625 7.1875 C5 7 5 7 3 5 C3 3.68 3 2.36 3 1 C2.34 1 1.68 1 1 1 C1.33 2.65 1.66 4.3 2 6 C1.01 6.495 1.01 6.495 0 7 C0 4.69 0 2.38 0 0 Z " fill="#C82D3C" transform="translate(58,119)"/>
<path d="M0 0 C1.32 0 2.64 0 4 0 C4 0.66 4 1.32 4 2 C3.01 2.33 2.02 2.66 1 3 C2.32 3.33 3.64 3.66 5 4 C4.67 4.99 4.34 5.98 4 7 C4 6.34 4 5.68 4 5 C1.83333333 5.83333333 1.83333333 5.83333333 1 8 C-0.32 7.67 -1.64 7.34 -3 7 C-2.25 2.25 -2.25 2.25 0 0 Z " fill="#F8ABB6" transform="translate(68,117)"/>
<path d="M0 0 C1 3 1 3 0.4375 5.5 C-0.33822518 8.2399734 -0.33822518 8.2399734 2 11 C-0.64 11 -3.28 11 -6 11 C-4.02 7.37 -2.04 3.74 0 0 Z " fill="#CA1727" transform="translate(125,95)"/>
<path d="M0 0 C4 1.33333333 8 2.66666667 12 4 C12.33 4.66 12.66 5.32 13 6 C15.01669827 7.13350534 15.01669827 7.13350534 17 8 C17 8.66 17 9.32 17 10 C12.97683781 8.51463956 9.38707358 6.60123107 5.6875 4.4375 C4.61886719 3.81746094 3.55023438 3.19742188 2.44921875 2.55859375 C1.64097656 2.04425781 0.83273438 1.52992187 0 1 C0 0.67 0 0.34 0 0 Z " fill="#FDDCDC" transform="translate(145,84)"/>
<path d="M0 0 C5.28 0 10.56 0 16 0 C10.07835964 2.96082018 6.52694785 3.15181433 0 2 C0 1.34 0 0.68 0 0 Z " fill="#C53740" transform="translate(82,125)"/>
<path d="M0 0 C2.3125 1.6875 2.3125 1.6875 4 4 C4.25 6.75 4.25 6.75 4 9 C0.9890638 6.9927092 0.36983503 6.16115776 -1 3 C-2.98 3.33 -4.96 3.66 -7 4 C-7 3.01 -7 2.02 -7 1 C-4.4086487 -0.29567565 -2.87704151 -0.34250494 0 0 Z " fill="#FCC1C4" transform="translate(94,116)"/>
<path d="M0 0 C3.3 0 6.6 0 10 0 C10 0.99 10 1.98 10 3 C6.04 3 2.08 3 -2 3 C-1.34 2.67 -0.68 2.34 0 2 C0 1.34 0 0.68 0 0 Z " fill="#FECED2" transform="translate(102,106)"/>
<path d="M0 0 C0.33 0.99 0.66 1.98 1 3 C0.07421875 4.82421875 0.07421875 4.82421875 -1.3125 6.6875 C-1.76238281 7.31011719 -2.21226563 7.93273437 -2.67578125 8.57421875 C-3.11277344 9.04472656 -3.54976563 9.51523438 -4 10 C-4.66 10 -5.32 10 -6 10 C-6 10.66 -6 11.32 -6 12 C-6.66 12 -7.32 12 -8 12 C-6.63312778 8.01328937 -4.84804907 5.11505367 -2 2 C-1.34 2 -0.68 2 0 2 C0 1.34 0 0.68 0 0 Z " fill="#FEE1E5" transform="translate(108,96)"/>
<path d="M0 0 C0.66 0.66 1.32 1.32 2 2 C4.58354218 2.16687448 4.58354218 2.16687448 7 2 C7 2.99 7 3.98 7 5 C6.34 5 5.68 5 5 5 C4.67 5.99 4.34 6.98 4 8 C3.360625 7.195625 2.72125 6.39125 2.0625 5.5625 C-1.90127449 2.24587237 -4.97294083 2.12047418 -10 2 C-10 1.67 -10 1.34 -10 1 C-8.37675914 0.77837671 -6.751279 0.57310197 -5.125 0.375 C-4.22007813 0.25898437 -3.31515625 0.14296875 -2.3828125 0.0234375 C-1.59648438 0.01570313 -0.81015625 0.00796875 0 0 Z " fill="#CD1B2D" transform="translate(69,89)"/>
<path d="M0 0 C-2.27597646 2.49552403 -4.60721178 4.06622986 -7.5625 5.6875 C-8.34753906 6.12449219 -9.13257812 6.56148437 -9.94140625 7.01171875 C-12 8 -12 8 -14 8 C-14 7.34 -14 6.68 -14 6 C-13.01 5.67 -12.02 5.34 -11 5 C-9.97895449 4.02149805 -8.9793879 3.02019573 -8 2 C-4.77208445 -0.1519437 -3.71599191 -0.20086443 0 0 Z " fill="#CC1C2B" transform="translate(75,155)"/>
<path d="M0 0 C0.99 0 1.98 0 3 0 C1.7508258 3.45925163 0.32472205 6.14693203 -2 9 C-2.6875 7.3125 -2.6875 7.3125 -3 5 C-1.75 2.25 -1.75 2.25 0 0 Z " fill="#FEC9CD" transform="translate(140,91)"/>
<path d="M0 0 C0.99 0.33 1.98 0.66 3 1 C2.34 3.31 1.68 5.62 1 8 C0.34 7.67 -0.32 7.34 -1 7 C-1.04254356 5.00045254 -1.04080783 2.99958364 -1 1 C-0.67 0.67 -0.34 0.34 0 0 Z " fill="#D90A16" transform="translate(74,115)"/>
<path d="M0 0 C4.30764815 1.56641751 8.06171464 3.68336156 12 6 C11.01 6.33 10.02 6.66 9 7 C7.30712215 6.04504326 5.64142963 5.0409066 4 4 C1.80869466 3.30420546 1.80869466 3.30420546 0 3 C0 2.01 0 1.02 0 0 Z " fill="#C7202C" transform="translate(70,42)"/>
<path d="M0 0 C0.66 0 1.32 0 2 0 C2.33 2.97 2.66 5.94 3 9 C2.01 8.67 1.02 8.34 0 8 C0 5.36 0 2.72 0 0 Z " fill="#FED2D9" transform="translate(81,116)"/>
<path d="M0 0 C-1.98 0.99 -1.98 0.99 -4 2 C-4 2.99 -4 3.98 -4 5 C-4.66 5 -5.32 5 -6 5 C-6 3.68 -6 2.36 -6 1 C-6.99 0.67 -7.98 0.34 -9 0 C-2.25 -1.125 -2.25 -1.125 0 0 Z " fill="#CF121B" transform="translate(68,118)"/>
<path d="M0 0 C-0.99 1.485 -0.99 1.485 -2 3 C-4.625 3.1875 -4.625 3.1875 -7 3 C-7 2.01 -7 1.02 -7 0 C-3.98968256 -0.93423645 -3.13349732 -1.04449911 0 0 Z " fill="#FFCCD2" transform="translate(82,106)"/>
<path d="M0 0 C2.32472205 2.85306797 3.7508258 5.54074837 5 9 C2.525 8.01 2.525 8.01 0 7 C0 6.01 0 5.02 0 4 C-0.66 3.34 -1.32 2.68 -2 2 C-1.34 2 -0.68 2 0 2 C0 1.34 0 0.68 0 0 Z " fill="#CE202C" transform="translate(128,91)"/>
<path d="M0 0 C2.31 0 4.62 0 7 0 C6.01 1.98 5.02 3.96 4 6 C2 3 2 3 2 1 C1.34 0.67 0.68 0.34 0 0 Z " fill="#CA1F32" transform="translate(101,94)"/>
<path d="M0 0 C3.45925163 1.2491742 6.14693203 2.67527795 9 5 C6.69 5 4.38 5 2 5 C1.34 3.35 0.68 1.7 0 0 Z " fill="#CB1E29" transform="translate(91,54)"/>
<path d="M0 0 C1.9375 0.375 1.9375 0.375 4 1 C4.33 1.66 4.66 2.32 5 3 C2.69 3.33 0.38 3.66 -2 4 C-1.34 2.68 -0.68 1.36 0 0 Z " fill="#D70E1B" transform="translate(70,128)"/>
<path d="M0 0 C-0.5 1.875 -0.5 1.875 -2 4 C-4.65177645 4.98494554 -7.20547307 5.45912382 -10 6 C-7.35570758 3.077361 -4.105808 0 0 0 Z " fill="#FDDADC" transform="translate(129,125)"/>
<path d="M0 0 C0.66 0.33 1.32 0.66 2 1 C-2.296875 5.00390625 -2.296875 5.00390625 -4 6 C-6.203125 5.65234375 -6.203125 5.65234375 -8 5 C-6.71475739 4.13619741 -5.42157581 3.28419631 -4.125 2.4375 C-3.04605469 1.72400391 -3.04605469 1.72400391 -1.9453125 0.99609375 C-1.30335938 0.66738281 -0.66140625 0.33867188 0 0 Z " fill="#FCDAD9" transform="translate(153,110)"/>
<path d="M0 0 C2.97 0 5.94 0 9 0 C9 0.66 9 1.32 9 2 C2.25 3.125 2.25 3.125 0 2 C0 1.34 0 0.68 0 0 Z " fill="#C71120" transform="translate(59,109)"/>
<path d="M0 0 C0.66 0 1.32 0 2 0 C2 2.31 2 4.62 2 7 C0.68 7.33 -0.64 7.66 -2 8 C-1.34 5.36 -0.68 2.72 0 0 Z " fill="#FFD6DC" transform="translate(76,120)"/>
<path d="M0 0 C0.33 0 0.66 0 1 0 C1 2.64 1 5.28 1 8 C0.34 8 -0.32 8 -1 8 C-1 6.68 -1 5.36 -1 4 C-1.99 3.67 -2.98 3.34 -4 3 C-3.01 3 -2.02 3 -1 3 C-0.67 2.01 -0.34 1.02 0 0 Z " fill="#B91B27" transform="translate(80,116)"/>
<path d="M0 0 C3.63 0 7.26 0 11 0 C11 0.99 11 1.98 11 3 C7.37 2.34 3.74 1.68 0 1 C0 0.67 0 0.34 0 0 Z " fill="#FEEBEE" transform="translate(115,92)"/>
<path d="M0 0 C0 0.66 0 1.32 0 2 C-2.2727675 3.49524178 -4.5679943 4.78399715 -7 6 C-7.66 5.34 -8.32 4.68 -9 4 C-2.25 0 -2.25 0 0 0 Z " fill="#FEE0E3" transform="translate(93,146)"/>
<path d="M0 0 C2.97 1.65 5.94 3.3 9 5 C8.01 5.33 7.02 5.66 6 6 C2.8125 4.1875 2.8125 4.1875 0 2 C0 1.34 0 0.68 0 0 Z " fill="#C71C2A" transform="translate(128,75)"/>
</svg>
