<svg width="500" height="500" viewBox="0 0 500 500" fill="none" xmlns="http://www.w3.org/2000/svg">
<path d="M305.328 65.3673C305.328 65.3673 333.527 36.7681 343.025 44.2473C355.841 54.3384 337.897 87.2352 337.576 87.2352C337.255 87.2352 305.65 64.0827 305.328 65.3673Z" fill="#ABABAB"/>
<path d="M307.999 66.047C309.645 67.8213 332.885 41.4644 341.749 46.8541C348.61 51.0265 340.824 79.9573 335.485 85.2966C335.403 85.3789 329.631 80.3462 329.268 79.8024C326.692 75.9381 323.337 74.2699 319.725 71.5611C318.182 70.4037 306.919 64.8832 307.999 66.047Z" fill="#2D2D2D"/>
<path d="M219.193 114.14C220.477 100.651 191.73 80.1767 202.171 67.2496C215.66 50.5489 241.353 73.673 242.317 74.3153C243.28 74.9576 219.007 116.085 219.193 114.14Z" fill="#ABABAB"/>
<path d="M177.438 358.599C178.248 357.454 168.425 361.188 167.161 362.453C162.787 366.827 153.243 370.482 145.642 370.482C117.671 370.482 92.5082 437.535 119.628 451.095C127.895 455.229 136.778 441.268 140.504 435.679C147.042 425.871 156.1 423.063 165.555 418.336C167.027 417.6 182.898 413.288 182.898 411.912C182.898 395.846 179.686 379.475 179.044 377.869C178.139 375.606 175.392 361.488 177.438 358.599Z" fill="#404040"/>
<path d="M301.215 397.74C300.105 397.737 319.038 407.721 320.391 410.155C322.856 414.593 330.256 414.509 333.869 414.155C336.664 413.881 343.592 410.848 344.389 408.457C346.538 402.011 327.88 388.396 325.008 389.114C320.467 390.249 304.672 397.75 301.215 397.74Z" fill="#393939"/>
<path d="M206.915 426.609C208.23 427.543 201.88 429.216 204.005 430.916C208.518 434.527 219.81 438.892 225.311 440.463C238.968 444.366 261.369 451.777 266.708 453.426C272.428 455.193 282.145 458.684 285.93 455.613C292.441 450.332 286.688 443.205 285.089 440.891C278.893 431.924 269.553 430.334 258.492 427.074C250.947 424.851 240.509 418.799 232.296 419.972C225.576 420.933 206.164 426.075 206.915 426.609Z" fill="#323232"/>
<path d="M221.336 107.118C221.657 106.431 195.881 75.8116 205.748 67.6558C213.2 61.4969 242.398 75.5635 238.672 79.3653C234.8 83.316 235.779 87.7338 232.133 92.2914C230.752 94.0178 220.648 108.589 221.336 107.118Z" fill="#2D2D2D"/>
<path d="M211.339 185.908C212.437 190.385 206.489 198.756 198.183 209.74C183.316 229.401 160.893 257.438 157.791 286.52C154.737 315.151 176.114 365.923 175.351 367.45C174.587 368.977 174.587 428.148 191.766 429.675C220.03 432.187 336.066 388.446 343.319 381.193C346.776 377.736 381.109 231.515 379.203 212.461C377.676 197.191 351.385 164.622 351.767 165.004C352.149 165.385 367.916 149.576 366.771 130.107C365.698 111.871 336.089 81.7247 327.829 76.4987C327.183 76.0905 309.622 55.426 271.86 61.3264C228.329 68.1279 228.871 94.7056 224.32 100.774C218.24 108.881 190.627 130.701 193.301 163.318C194.144 173.601 209.147 176.973 211.339 185.908Z" fill="#555555"/>
<path d="M283.507 136.334C270.812 129.987 261.858 149.863 263.784 159.493C268.497 183.056 311.284 186.307 317.872 153.368C319.427 145.591 311.103 128.037 295.46 132.45C289.633 134.093 297.689 148.586 297.253 148.586C295.191 148.586 288.299 148.521 285.748 148.885C285.653 148.899 288.536 138.849 283.507 136.334Z" fill="#C4C4C4"/>
<path d="M201.747 206.718C200.921 206.718 202.827 270.585 216.056 281.015C230.365 292.297 274.477 280.661 283.748 271.109C292.829 261.753 278.778 195.46 276.928 189.91C275.761 186.41 268.889 180.026 262.835 183.053C255.017 186.962 255.49 231.511 247.976 232.585C244.123 233.135 202.572 206.718 201.747 206.718Z" fill="#2D2D2D"/>
<path d="M312.664 178.844C311.965 186.299 318.721 217.75 318.488 217.75C318.255 217.75 317.182 231.57 318.954 239.415C320.585 246.637 362.286 306.51 362.519 307.675C362.752 308.84 381.855 236.853 377.895 230.097C371.255 218.77 338.551 202.926 340.419 205.982C341.837 208.303 335.181 190.419 334.101 180.971C333.586 176.459 328.883 167.67 319.662 169.626C315.408 170.529 313.363 171.389 312.664 178.844Z" fill="#2F2F2F"/>
<path d="M110.255 440.005C114.043 435.797 122.44 430.009 129.946 431.745C142.225 434.586 133.421 446.16 141.215 434.798C149.01 423.436 108.051 422.345 108.051 431.66C108.051 433.194 109.364 440.995 110.255 440.005Z" fill="#C4C4C4"/>
<path d="M116.026 395.94C113.371 401.25 110.623 409.301 110.577 409.723C110.17 413.378 127.369 405.776 134.738 408.746C143.203 412.159 146.706 429.689 150.906 425.818C151.742 425.047 155.719 423.005 156.7 422.535C159.85 421.026 154.372 409.594 153.506 407.172C147.403 390.11 117.797 392.396 116.026 395.94Z" fill="#C4C4C4"/>
<path d="M155.957 369.204C154.212 369.605 142.046 367.54 131.468 375.527C128.368 377.868 153.028 394.413 154.989 401.691C156.154 406.01 159.822 421.794 163.002 420.009C166.609 417.984 172.915 416.688 172.978 416.268C173.421 413.293 169.031 397.066 167.013 387.326C163.722 371.442 157.31 368.894 155.957 369.204Z" fill="#C4C4C4"/>
<path d="M279.236 130.625C282.395 127.297 284.489 122.328 271.391 114.918C264.665 111.112 248.075 120.582 242.845 124.069C230.497 132.301 218.294 149.021 231.755 162.482C238.462 169.189 250.022 173.166 257.432 167.996C257.953 167.633 265.517 165.281 265.419 164.986C263.106 158.047 263.952 152.569 265.359 147.265C266.921 141.378 274.73 135.371 279.236 130.625Z" fill="#2D2D2D"/>
<path d="M257.952 120.814C255.806 121.86 255.105 124.396 256.207 127.336C257.809 131.607 266.678 130.367 267.413 130.367C267.543 130.367 268.388 125.381 265.392 122.1C263.463 119.987 261.534 119.069 257.952 120.814Z" fill="black"/>
<path d="M367.533 143.411C367.533 142.947 367.572 143.16 367.441 142.768L367.533 143.411Z" fill="url(#paint0_linear_518_44)"/>
<path d="M297.333 112.038C292.788 114.002 290.371 119.572 290.905 125.271C291.602 132.71 308.202 128.691 313.447 139.181C316.469 145.226 315.981 146.811 319.306 152.795C321.891 157.448 325.373 157.103 326.027 157.103C333.457 157.103 335.677 155.552 341.02 150.21C350.023 141.207 350.058 135.591 344.639 127.462C337.373 116.563 308.469 107.226 297.333 112.038Z" fill="#2D2D2D"/>
<path d="M301.396 124.58C301.573 124.571 300.937 109.975 309.754 114.66C313.251 116.517 314.337 120.456 311.867 122.927C309.375 125.419 301.142 124.593 301.396 124.58Z" fill="black"/>
<path d="M262.003 121.835C260.269 122.118 261.366 126.717 263.029 126.186C264.523 125.709 263.931 121.52 262.003 121.835Z" fill="white"/>
<path d="M305.861 116.04C304.102 116.31 304.404 121.243 306.381 120.931C307.94 120.684 307.214 115.832 305.861 116.04Z" fill="white"/>
<path d="M275.45 168.193C275.383 168.462 287.284 174.19 292.309 173.873C296.524 173.607 304.98 165.319 304.608 165.071C304.282 164.854 295.438 171.027 292.002 171.324C288.566 171.621 275.529 167.88 275.45 168.193Z" fill="black"/>
<path d="M280.012 120.319C284.733 118.622 279.531 81.3664 271.579 85.3427C261.001 90.6314 250.815 100.87 241.434 107.906C216.468 126.63 185.518 128.9 193.991 167.634C195.388 174.018 205.679 178.813 209.485 182.467C214.65 187.425 220.218 183.945 222.57 176.888C226.932 163.801 223.485 146.291 232.927 135.276C241.888 124.821 250.078 117.444 266.048 114.449C271.97 113.339 276.982 121.408 280.012 120.319Z" fill="#C4C4C4"/>
<path d="M283.829 97.6759C284.106 102.042 288.11 119.63 290.01 119.947C292.23 120.317 291.558 114.056 297.488 112.299C314.138 107.366 333.15 116.471 340.873 122.88C353.543 133.393 344.817 138.819 356.32 143.091C356.422 143.129 366.308 144.489 366.39 143.804C368.054 129.934 366.154 110.212 351.595 102.933C340.915 97.5929 318.835 96.0839 307.025 93.1309C303.164 92.1657 293.154 82.5894 288.531 82.4045C283.907 82.2196 283.231 88.2182 283.829 97.6759Z" fill="#C4C4C4"/>
<path d="M285.611 148.117C271.94 151.327 277.673 173.332 292.529 171.639C307.583 169.924 307.528 149.39 297.067 147.896C293.295 147.357 288.857 147.355 285.611 148.117Z" fill="#252525"/>
<path d="M309.629 150.938C309.629 150.938 311.206 149.446 312.13 148.892C316.562 146.233 322.326 144.635 327.14 142.752C340.103 137.679 355.998 133.753 369.894 132.29C375.738 131.675 387.405 130.244 387.405 130.244" stroke="#D0D0D0" stroke-linecap="round" stroke-linejoin="bevel"/>
<path d="M310.539 157.534C310.539 157.534 311.21 156.758 311.676 156.625C317.832 154.866 323.85 152.852 330.097 151.394C344.266 148.088 358.439 146.695 372.851 145.254C378.309 144.708 383.747 144.799 389.225 144.799C390.222 144.799 392.181 145.254 392.181 145.254" stroke="#D0D0D0" stroke-linecap="round" stroke-linejoin="bevel"/>
<path d="M310.312 165.039C310.312 165.039 311.916 164.082 312.815 163.902C318.406 162.784 323.971 161.685 329.642 160.946C343.454 159.144 357.618 159.058 371.487 160.263C372.906 160.387 389.225 160.667 389.225 162.538" stroke="#D0D0D0" stroke-linecap="round" stroke-linejoin="bevel"/>
<path d="M273.014 153.527C270.327 153.527 263.872 149.271 260.487 148.729C236.006 144.812 203.939 139.416 179.996 147.397" stroke="#D0D0D0" stroke-linecap="round" stroke-linejoin="bevel"/>
<path d="M267.684 158.22C267.684 156.529 249.221 155.636 248.494 155.555C229.02 153.391 209.398 156.128 190.391 160.352" stroke="#D0D0D0" stroke-linecap="round" stroke-linejoin="bevel"/>
<path d="M270.293 164.617C270.293 162.637 254.556 163.772 253.236 163.817C231.837 164.555 210.735 169.742 191.668 179.276" stroke="#D0D0D0" stroke-linecap="round" stroke-linejoin="bevel"/>
<path d="M271.89 168.024C271.89 168.024 260.818 170.287 255.365 171.755C244.088 174.791 233.738 179.049 223.648 184.815" stroke="#D0D0D0" stroke-linecap="round" stroke-linejoin="bevel"/>
<path d="M309.633 145.532C309.633 145.532 310.94 144.125 311.765 143.666C316.607 140.977 321.912 138.597 327.224 137.003C338.187 133.714 354.712 126.342 366.137 126.342" stroke="#D0D0D0" stroke-linecap="round" stroke-linejoin="bevel"/>
<defs>
<linearGradient id="paint0_linear_518_44" x1="367.441" y1="143.089" x2="367.539" y2="143.089" gradientUnits="userSpaceOnUse">
<stop stop-color="#74FCA1" stop-opacity="0.229614"/>
<stop offset="1" stop-color="#4DB6DE" stop-opacity="0.369099"/>
</linearGradient>
</defs>
</svg>