<svg width="450" height="448" viewBox="0 0 450 448" fill="none" xmlns="http://www.w3.org/2000/svg">
<path d="M309.739 124.585L275.746 142.446C275.746 142.446 283.62 158.386 277.172 169.141C267.253 185.684 334.322 173.558 334.322 142.446C334.322 124.585 309.739 124.585 309.739 124.585Z" fill="#414141"/>
<path d="M191.444 158.386C191.444 142.446 200.204 132.651 200.204 132.651L182.216 109.989C182.216 109.989 152.641 97.6975 149.184 124.585C146.751 143.503 191.444 169.464 191.444 158.386Z" fill="#414141"/>
<path fill-rule="evenodd" clip-rule="evenodd" d="M309.739 124.585C309.739 124.585 286.885 97.6975 275.746 99.2126C270.448 99.9332 266.719 106.148 266.719 106.148L261.342 119.591L275.746 142.446L309.739 124.585ZM272.481 118.823C269.491 114.508 272.161 108.837 275.746 106.148C279.331 103.459 294.375 108.068 294.375 116.135C294.375 121.243 289.765 124.585 283.62 124.585C278.853 124.585 275.196 122.742 272.481 118.823Z" fill="#414141"/>
<path fill-rule="evenodd" clip-rule="evenodd" d="M224.852 93.8565C209.104 79.6446 182.216 109.989 182.216 109.989L200.204 132.651L221.395 116.135L226.388 99.2126C226.388 99.2126 226.82 95.6319 224.852 93.8565ZM202.958 109.989C200.458 107.073 201.367 101.369 205.263 98.4657C209.872 95.0301 217.17 93.4579 220.243 97.6975C223.316 101.937 224.342 106.148 219.475 109.989C215.235 113.334 205.263 112.677 202.958 109.989Z" fill="#414141"/>
<path fill-rule="evenodd" clip-rule="evenodd" d="M205.263 98.4657C201.367 101.369 200.458 107.073 202.958 109.989C205.263 112.677 215.235 113.334 219.475 109.989C224.342 106.148 223.316 101.937 220.243 97.6975C217.17 93.4579 209.872 95.0301 205.263 98.4657ZM212.193 102.307C211.409 101.467 211.117 99.6179 212.193 98.4656C213.268 97.3133 215.265 97.6425 216.034 98.4656C216.802 99.2887 216.786 101.116 216.034 101.923C214.958 103.075 212.976 103.147 212.193 102.307Z" fill="black"/>
<path fill-rule="evenodd" clip-rule="evenodd" d="M275.746 106.148C272.161 108.837 269.491 114.508 272.481 118.823C275.196 122.742 278.853 124.585 283.62 124.585C289.765 124.585 294.375 121.243 294.375 116.135C294.375 108.068 279.331 103.459 275.746 106.148ZM280.547 111.909C279.613 110.842 279.779 109.33 280.547 108.452C281.555 107.3 283.38 107.3 284.388 108.452C285.397 109.605 285.231 110.946 284.388 111.909C283.546 112.872 281.481 112.977 280.547 111.909Z" fill="black"/>
<path d="M280.547 108.452C279.779 109.33 279.613 110.842 280.547 111.909C281.481 112.977 283.546 112.872 284.388 111.909C285.231 110.946 285.397 109.605 284.388 108.452C283.38 107.3 281.555 107.3 280.547 108.452Z" fill="white"/>
<path d="M212.193 98.4656C211.117 99.6179 211.409 101.467 212.193 102.307C212.976 103.147 214.958 103.075 216.034 101.923C216.786 101.116 216.802 99.2887 216.034 98.4656C215.265 97.6425 213.268 97.3133 212.193 98.4656Z" fill="white"/>
<path d="M174.15 20.1084C162.627 25.5311 176.839 63.8842 176.839 63.8842L202.574 45.0337C202.574 45.0337 185.674 14.6858 174.15 20.1084Z" fill="#414141"/>
<path d="M363.514 45.0337C354.356 37.6943 325.359 63.8842 325.359 63.8842L350.089 82.7175C350.089 82.7175 372.671 52.3731 363.514 45.0337Z" fill="#414141"/>
<path d="M164.548 1.28734C154.177 7.04887 161.091 75.4195 161.091 75.4195L176.839 63.8842C176.839 63.8842 162.627 25.5311 174.15 20.1084C185.674 14.6858 202.574 45.0337 202.574 45.0337L221.395 31.2476C221.395 31.2476 180.296 -7.46145 164.548 1.28734Z" fill="#9F9F9F"/>
<path d="M373.884 28.5587C363.898 21.3943 309.739 52.3731 309.739 52.3731L325.359 63.8842C325.359 63.8842 354.356 37.6943 363.514 45.0337C372.671 52.3731 350.089 82.7175 350.089 82.7175L363.514 93.4722C363.514 93.4722 394.242 43.163 373.884 28.5587Z" fill="#9F9F9F"/>
<path d="M253.276 145.326C253.344 137.948 244.825 128.426 244.825 128.426H221.395C221.395 128.426 209.332 137.169 209.104 145.326C208.897 152.71 212.348 157.499 218.322 161.843C226.694 167.929 236.626 168.16 244.825 161.843C250.565 157.421 253.209 152.571 253.276 145.326Z" fill="#010101"/>
<path d="M95.4092 251.723C117.651 326.173 103.859 448 103.859 448C103.859 448 228.369 359.316 214.097 283.22C205.845 239.218 149.184 188.73 149.184 188.73L77.3563 128.426C77.3563 128.426 95.7934 68.8897 66.2174 75.4195C51.3798 78.6953 45.805 42.1837 30.8798 45.0337C4.76078 50.0213 16.4561 65.7189 4.76079 75.4195C-19.4595 95.5089 56.6146 150.704 56.6146 150.704C56.6146 150.704 83.2145 210.903 95.4092 251.723Z" fill="#414141"/>
<path d="M419.209 97.6975C392.448 97.6975 383.487 124.585 383.487 124.585L378.062 135.34L359.288 180.664L302.057 242.504C302.057 242.504 281.786 263.184 272.481 283.22C236.934 359.762 403.845 448 403.845 448C403.845 448 353.527 270.544 386.56 199.101C386.56 199.101 464.917 138.028 446.864 124.585C439.237 118.905 454.546 97.6975 419.209 97.6975Z" fill="#414141"/>
<path d="M309.739 52.3731L221.395 31.2476L202.574 45.0337L176.839 63.8842L161.091 75.4195L135.016 99.2126L156.866 86.5585C156.866 86.5585 182.24 72.3227 200.204 69.2738C218.589 66.1536 244.825 63.8842 246.362 72.7306C248.268 83.7052 248.239 95.8983 237.143 99.2126C233.119 100.415 226.388 99.2126 226.388 99.2126L221.395 116.135V128.426H244.825L261.342 119.591L266.719 106.148C266.719 106.148 261.617 106.311 258.269 104.227C249.311 98.6522 258.269 86.5585 265.183 78.1082C277.155 63.4752 316.798 88.9001 344.308 106.916C358.725 116.357 378.062 135.34 378.062 135.34L383.487 124.585L363.514 93.4722L350.089 82.7175L325.359 63.8842L309.739 52.3731Z" fill="#6A6A6A"/>
<path d="M130.363 103.459C119.281 116.135 126.906 138.028 126.906 138.028C126.906 138.028 134.014 145.137 145.065 154.545L196.72 172.982C183.07 156.858 200.204 132.651 200.204 132.651C200.204 132.651 191.444 142.446 191.444 158.386C191.444 169.464 146.751 143.503 149.184 124.585C152.641 97.6975 182.216 109.989 182.216 109.989C182.216 109.989 209.104 79.6446 224.852 93.8565C226.82 95.6319 226.388 99.2126 226.388 99.2126C226.388 99.2126 233.119 100.415 237.143 99.2126C248.239 95.8983 248.268 83.7052 246.362 72.7306C244.825 63.8842 218.589 66.1536 200.204 69.2738C182.24 72.3227 156.866 86.5585 156.866 86.5585L135.016 99.2126C135.016 99.2126 131.982 101.607 130.363 103.459Z" fill="#D6D6D6"/>
<path d="M309.739 188.73L359.288 180.664L378.062 135.34C378.062 135.34 358.725 116.357 344.308 106.916C316.798 88.9001 277.155 63.4752 265.183 78.1082C258.269 86.5585 249.311 98.6522 258.269 104.227C261.617 106.311 266.719 106.148 266.719 106.148C266.719 106.148 270.448 99.9332 275.746 99.2126C286.885 97.6975 309.739 124.585 309.739 124.585C309.739 124.585 334.322 124.585 334.322 142.446C334.322 173.558 267.253 185.684 277.172 169.141C283.62 158.386 275.746 142.446 275.746 142.446C275.746 142.446 288.766 174.183 261.342 184.05L309.739 188.73Z" fill="#D6D6D6"/>
<path d="M261.342 119.591L244.825 128.426C244.825 128.426 253.344 137.948 253.276 145.326C253.209 152.571 250.565 157.421 244.825 161.843C236.626 168.16 226.694 167.929 218.322 161.843C212.348 157.499 208.897 152.71 209.104 145.326C209.332 137.169 221.395 128.426 221.395 128.426V116.135L200.204 132.651C200.204 132.651 183.07 156.858 196.72 172.982C202.223 179.482 212.73 184.669 231.382 186.425C244.626 187.672 254.312 186.58 261.342 184.05C288.766 174.183 275.746 142.446 275.746 142.446L261.342 119.591Z" fill="#D6D6D6"/>
<path d="M221.395 199.101C255.488 205.759 309.739 188.73 309.739 188.73L261.342 184.05C254.312 186.58 244.626 187.672 231.382 186.425C212.73 184.669 202.223 179.482 196.72 172.982L145.065 154.545C164.177 170.815 195.08 193.962 221.395 199.101Z" fill="#414141"/>
<path d="M126.906 138.028L77.3563 128.426L149.184 188.73C149.184 188.73 205.845 239.218 214.097 283.22C228.369 359.316 103.859 448 103.859 448H403.845C403.845 448 236.934 359.762 272.481 283.22C281.786 263.184 302.057 242.504 302.057 242.504L359.288 180.664L309.739 188.73C309.739 188.73 255.488 205.759 221.395 199.101C195.08 193.962 164.177 170.815 145.065 154.545C134.014 145.137 126.906 138.028 126.906 138.028Z" fill="#6A6A6A"/>
<path d="M223.316 170.293C235.561 173.847 254.428 164.531 254.428 164.531C254.428 164.531 237.198 167.492 226.773 166.067C216.348 164.642 202.574 155.312 202.574 155.312C202.574 155.312 214.004 167.59 223.316 170.293Z" fill="black"/>
</svg>