<svg width="533" height="533" viewBox="0 0 533 533" fill="none" xmlns="http://www.w3.org/2000/svg">
<g clip-path="url(#clip0_521_71)">
<path d="M362.431 34.3504C331.153 32.054 295.124 33.5721 282.426 37.3087L266.729 49.4531L262.142 55.6812L251.578 72.209L246.28 80.1648C246.28 80.1648 242.067 92.3651 239.97 105.388C239.97 105.388 297.228 65.8406 306.949 75.494C316.67 85.1474 306.949 102.741 306.949 102.741V115.509C306.949 115.509 314.567 121.407 320.793 121.542C326.305 121.662 333.646 115.509 333.646 115.509L332.984 102.741C332.984 102.741 326.713 82.2906 337.463 74.5209C348.214 66.7512 415.676 102.741 415.676 102.741C414.332 87.5723 411.061 75.494 411.061 75.494L402.277 69.3305L383.697 53.6571L378.166 47.4292L362.431 34.3504Z" fill="#6A6A6A"/>
<path d="M239.97 132.713C242.5 147.253 254.343 166.311 254.343 166.311C254.343 166.311 269.523 175.515 286.789 182.832C302.156 189.345 319.022 195.499 327.881 195.499C345.935 195.499 373.539 179.906 394.175 166.311C410.122 155.805 416.922 146.337 416.922 146.337C416.922 138.319 416.922 130.767 416.922 121.62L391.955 138.202C379.14 149.179 352.225 164.281 352.225 164.281C352.225 164.281 339.294 175.92 323.013 175.92C303.92 175.92 292.164 164.281 292.164 164.281C292.164 164.281 271.076 155.874 262.142 145.715L239.97 132.713Z" fill="#6A6A6A"/>
<path d="M394.175 166.311C373.539 179.906 345.935 195.499 327.881 195.499C319.022 195.499 302.156 189.345 286.789 182.832C286.789 182.832 321.727 273.505 352.225 268.199C379.296 263.489 394.175 166.311 394.175 166.311Z" fill="#6A6A6A"/>
<path d="M411.061 75.494C411.061 75.494 431.1 37.3087 429.153 23.6461C427.205 9.98356 416.907 8.7536 412.638 9.03276C386.852 20.5708 378.166 47.4292 378.166 47.4292L383.697 53.6571C383.697 53.6571 408.82 17.4975 415.676 21.9723C426.816 29.2438 402.277 69.3305 402.277 69.3305L411.061 75.494Z" fill="#6A6A6A"/>
<path d="M222.326 19.4809C211.186 35.9851 246.28 80.1648 246.28 80.1648L251.578 72.209C251.578 72.209 219.249 34.7824 233.349 27.6553C243.515 22.5167 262.142 55.6812 262.142 55.6812L266.729 49.4531C266.729 49.4531 263.107 30.5356 232.336 13.161C228.092 13.4939 224.511 16.2434 222.326 19.4809Z" fill="#6A6A6A"/>
<path d="M347.318 473.812C347.318 473.812 322.329 432.991 291.619 411.299C269.3 395.534 257.876 356.828 248.851 316.634C238.976 272.654 239.799 201.572 239.799 201.572C230.127 222.585 216.328 246.583 208.031 251.318C175.741 362.604 244.294 441.738 244.294 441.738L269.3 506.84C269.3 506.84 306.385 503.94 315.001 503.94C322.178 503.94 361.613 510.285 361.613 510.285L347.318 473.812Z" fill="#6A6A6A"/>
<path d="M423.26 446.462C423.26 446.462 423.453 427.439 419.532 414.18C412.475 390.315 380.932 363.46 380.932 363.46C380.932 363.46 368.585 410.17 371.506 440.61C372.995 456.126 385.201 489.22 394.145 501.99C396.4 473.812 423.26 446.462 423.26 446.462Z" fill="#6A6A6A"/>
<path d="M463.234 326.715C460.508 283.431 438.189 175.765 416.922 146.337C416.922 146.337 410.122 155.805 394.175 166.311C394.175 166.311 379.296 263.489 352.225 268.199C321.727 273.505 286.789 182.832 286.789 182.832C269.523 175.515 254.343 166.311 254.343 166.311C254.343 166.311 248.095 183.546 239.799 201.572C239.799 201.572 238.976 272.654 248.851 316.634C257.876 356.828 269.3 395.534 291.619 411.299C322.329 432.991 347.318 473.812 347.318 473.812L361.613 510.285L364.105 516.948C364.105 516.948 360.172 528.93 364.105 531.733C376.453 540.53 439.274 536.729 427.914 531.733C415.263 526.168 405.012 514.489 394.145 501.99C385.201 489.22 372.995 456.126 371.506 440.61C368.585 410.17 380.932 363.46 380.932 363.46C380.932 363.46 412.475 390.315 419.532 414.18C423.453 427.439 423.26 446.462 423.26 446.462L427.914 508.261C427.914 508.261 425.048 521.288 428.919 527.373C432.113 532.394 469.737 538.009 487.812 528.424C502.198 520.795 463.234 506.704 463.234 506.704C463.234 506.704 443.93 444.277 455.483 407.913C465.376 376.773 465.285 359.266 463.234 326.715Z" fill="#9F9F9F"/>
<path d="M239.97 506.704C239.97 493.999 201.682 481.792 201.682 481.792L244.294 441.738C244.294 441.738 175.741 362.604 208.031 251.318C182.959 273.526 159.855 284.591 150.564 352.823C143.352 405.783 158.15 445.112 158.15 445.112L163.043 503.94C163.043 503.94 209.614 519.407 222.637 518.654C235.661 517.901 239.97 516.333 239.97 506.704Z" fill="#9F9F9F"/>
<path d="M337.463 74.5209C326.713 82.2906 332.984 102.741 332.984 102.741C332.984 102.741 341.358 93.2377 348.136 91.9203C354.913 90.6029 372.48 99.5107 383.697 112.473C393.162 126.758 391.955 138.202 391.955 138.202L416.922 121.62C416.922 114.069 416.922 109.164 415.676 102.741C415.676 102.741 348.214 66.7512 337.463 74.5209Z" fill="#D6D6D6"/>
<path d="M306.949 102.741C306.949 102.741 316.67 85.1474 306.949 75.494C297.228 65.8406 239.97 105.388 239.97 105.388C238.447 114.851 238.463 124.049 239.97 132.713L262.142 145.715C262.142 145.715 255.821 131.71 262.142 118.039C269.05 103.098 288.931 92.3481 295.708 93.2827C302.486 94.2172 306.949 102.741 306.949 102.741Z" fill="#D6D6D6"/>
<path d="M289.282 143.574C290.684 157.548 292.164 164.281 292.164 164.281C292.164 164.281 303.92 175.92 323.013 175.92C339.294 175.92 352.225 164.281 352.225 164.281C352.225 164.281 356.627 151.398 356.627 142.678C353.355 131.234 333.646 115.509 333.646 115.509C333.646 115.509 326.305 121.662 320.793 121.542C314.567 121.407 306.949 115.509 306.949 115.509C306.949 115.509 290.1 132.285 289.282 143.574Z" fill="#D6D6D6"/>
<path d="M356.627 142.678C356.627 151.398 352.225 164.281 352.225 164.281C352.225 164.281 379.14 149.179 391.955 138.202C375.557 146.882 365.897 144.508 356.627 142.678Z" fill="#9F9F9F"/>
<path d="M292.164 164.281C292.164 164.281 290.684 157.548 289.282 143.574C281.531 146.96 272.066 149.023 262.142 145.715C271.076 155.874 292.164 164.281 292.164 164.281Z" fill="#9F9F9F"/>
<path d="M306.949 115.509V102.741C306.949 102.741 302.486 94.2172 295.708 93.2827C288.931 92.3481 269.05 103.098 262.142 118.039C255.821 131.71 262.142 145.715 262.142 145.715C272.066 149.023 281.531 146.96 289.282 143.574C290.1 132.285 306.949 115.509 306.949 115.509Z" fill="#414141"/>
<path d="M333.646 115.509C333.646 115.509 353.355 131.234 356.627 142.678C365.897 144.508 375.557 146.882 391.955 138.202C391.955 138.202 393.162 126.758 383.697 112.473C372.48 99.5107 354.913 90.6029 348.136 91.9203C341.358 93.2377 332.984 102.741 332.984 102.741L333.646 115.509Z" fill="#414141"/>
<path d="M262.142 55.6812C262.142 55.6812 243.515 22.5167 233.349 27.6553C219.249 34.7824 251.578 72.209 251.578 72.209L262.142 55.6812Z" fill="#414141"/>
<path d="M415.676 21.9723C408.82 17.4975 383.697 53.6571 383.697 53.6571L402.277 69.3305C402.277 69.3305 426.816 29.2438 415.676 21.9723Z" fill="#414141"/>
<path d="M282.426 37.3087C270.118 28.395 252 11.6187 232.336 13.161C263.107 30.5356 266.729 49.4531 266.729 49.4531L282.426 37.3087Z" fill="#D6D6D6"/>
<path d="M412.638 9.03276C391.827 10.3934 379.88 23.1792 362.431 34.3504L378.166 47.4292C378.166 47.4292 386.852 20.5708 412.638 9.03276Z" fill="#D6D6D6"/>
<path d="M201.682 481.792C201.682 481.792 239.97 493.999 239.97 506.704L269.3 506.84L244.294 441.738L201.682 481.792Z" fill="#6A6A6A"/>
<path d="M99.0089 444.113C125.69 466.467 100.723 504.559 100.723 504.559C115.12 504.172 129.737 504.847 140.335 504.559C140.335 504.559 154.435 467.818 132 445.112C121.557 444.618 112.196 444.558 99.0089 444.113Z" fill="#6A6A6A"/>
<path d="M21.6534 443.156C57.2151 466.3 28.0413 507.544 28.0413 507.544C39.6321 507.249 53.457 506.887 67.7707 506.508C67.7707 506.508 101.891 471.555 61.8502 442.788C46.951 442.576 32.8425 442.632 21.6534 443.156Z" fill="#6A6A6A"/>
<path d="M-1.44416 446.565C-21.8732 459.36 -27.0729 508.261 -2.96335 508.261C-0.859354 508.261 11.2455 507.972 28.0413 507.544C28.0413 507.544 57.2151 466.3 21.6534 443.156C9.94359 443.704 1.43113 444.764 -1.44416 446.565Z" fill="#D6D6D6"/>
<path d="M61.8502 442.788C101.891 471.555 67.7707 506.508 67.7707 506.508C79.127 506.207 89.6225 504.857 100.723 504.559C100.723 504.559 125.69 466.467 99.0089 444.113C87.8413 443.736 73.0264 442.947 61.8502 442.788Z" fill="#D6D6D6"/>
<path d="M163.043 503.94L158.15 445.112C158.15 445.112 148.592 445.895 132 445.112C154.435 467.818 140.335 504.559 140.335 504.559C154.089 504.185 163.043 503.94 163.043 503.94Z" fill="#D6D6D6"/>
<path d="M364.806 105.894C364.806 109.914 360.308 114.069 354.952 114.069C349.595 114.069 345.253 109.019 345.253 104.999C345.253 100.979 349.595 97.7202 354.952 97.7202C360.308 97.7202 364.806 101.874 364.806 105.894Z" fill="black"/>
<path d="M300.499 106.011C300.499 110.682 294.473 114.847 290.45 114.847C286.427 114.847 280.596 112.356 280.596 107.49C280.596 103.47 286.427 99.0436 290.45 99.0436C294.473 99.0436 300.499 101.34 300.499 106.011Z" fill="black"/>
<path d="M357.055 102.703C357.055 103.627 355.586 104.104 353.822 104.104C352.058 104.104 350.356 103.52 350.356 102.08C350.356 100.873 351.396 100.523 353.16 100.523C354.924 100.523 357.055 101.496 357.055 102.703Z" fill="white"/>
<path d="M296.999 104.026C296.999 104.95 296.031 105.661 294.267 105.661C292.503 105.661 290.606 104.756 290.606 103.831C290.606 102.907 290.867 101.652 292.631 101.652C294.395 101.652 296.999 103.102 296.999 104.026Z" fill="white"/>
<path fill-rule="evenodd" clip-rule="evenodd" d="M338.193 147.236C338.193 147.236 338.193 147.237 337.931 146.921C337.669 146.606 337.669 146.605 337.669 146.605L337.671 146.604L337.678 146.599L337.703 146.577L337.743 146.545C337.76 146.531 337.781 146.514 337.804 146.495C337.893 146.422 338.025 146.314 338.2 146.173C338.548 145.891 339.065 145.478 339.737 144.95C341.08 143.894 343.046 142.38 345.538 140.547C350.521 136.881 357.606 131.938 366.02 126.826C382.837 116.609 405.001 105.693 426.297 102.997L426.4 103.81C405.278 106.485 383.234 117.328 366.446 127.527C358.057 132.623 350.992 137.552 346.024 141.207C343.54 143.034 341.581 144.543 340.244 145.594C339.575 146.119 339.061 146.531 338.716 146.81C338.543 146.95 338.412 147.057 338.324 147.129C338.28 147.165 338.247 147.192 338.225 147.21L338.2 147.23L338.194 147.235L338.193 147.236ZM299.935 142.036C299.935 142.036 299.936 142.036 299.759 142.406C299.583 142.776 299.582 142.776 299.582 142.776L299.573 142.771L299.541 142.756C299.512 142.743 299.469 142.722 299.412 142.696C299.297 142.643 299.125 142.564 298.898 142.462C298.445 142.258 297.772 141.961 296.897 141.593C295.147 140.855 292.589 139.829 289.357 138.674C282.894 136.364 273.743 133.542 262.996 131.496C241.494 127.402 213.649 126.422 188.151 138.804L187.792 138.067C213.514 125.576 241.562 126.581 263.15 130.691C273.947 132.747 283.14 135.581 289.633 137.902C292.881 139.062 295.454 140.095 297.216 140.838C298.097 141.209 298.776 141.508 299.235 141.714C299.464 141.818 299.639 141.898 299.756 141.952C299.815 141.979 299.86 142 299.89 142.014L299.924 142.03L299.932 142.034L299.935 142.036ZM340.348 149.366C340.348 149.366 340.348 149.366 340.073 149.062C339.798 148.758 339.799 148.757 339.799 148.757L339.8 148.756L339.804 148.752L339.819 148.74C339.831 148.729 339.848 148.714 339.871 148.694C339.917 148.655 339.985 148.599 340.075 148.527C340.256 148.383 340.526 148.176 340.891 147.921C341.62 147.411 342.729 146.707 344.254 145.919C347.307 144.343 352.029 142.433 358.736 141.071C372.152 138.348 393.494 137.821 425.288 146.526L425.071 147.316C393.376 138.638 372.165 139.181 358.899 141.874C352.266 143.221 347.616 145.106 344.631 146.647C343.138 147.418 342.061 148.103 341.361 148.593C341.011 148.838 340.754 149.034 340.587 149.167C340.504 149.234 340.442 149.285 340.403 149.319C340.383 149.336 340.368 149.348 340.359 149.356L340.35 149.365L340.348 149.366ZM292.358 142.782C292.358 142.782 292.36 142.782 292.281 143.184C292.202 143.587 292.201 143.586 292.201 143.586L292.189 143.584L292.149 143.576C292.114 143.57 292.06 143.56 291.989 143.546C291.847 143.52 291.635 143.482 291.357 143.434C290.802 143.337 289.984 143.202 288.936 143.046C286.84 142.734 283.823 142.34 280.145 142.013C272.787 141.358 262.791 140.973 252.228 142.045C231.075 144.191 207.799 152.16 198.714 175.33L197.951 175.031C207.211 151.414 230.91 143.384 252.145 141.229C262.775 140.151 272.826 140.539 280.218 141.196C283.914 141.525 286.947 141.921 289.057 142.235C290.112 142.392 290.936 142.529 291.497 142.626C291.778 142.675 291.993 142.714 292.138 142.74C292.178 142.748 292.213 142.754 292.243 142.76C292.266 142.764 292.286 142.768 292.303 142.771L292.345 142.779L292.358 142.782ZM349.726 149.466C349.726 149.466 349.726 149.466 349.655 149.062C349.62 148.866 349.603 148.766 349.593 148.714C349.584 148.658 349.584 148.658 349.584 148.658L349.585 148.658L349.609 148.654C349.626 148.651 349.65 148.647 349.682 148.642C349.747 148.631 349.843 148.614 349.969 148.594C350.22 148.553 350.591 148.494 351.069 148.422C352.027 148.278 353.418 148.084 355.152 147.878C358.619 147.468 363.462 147.016 368.967 146.847C379.961 146.511 393.648 147.306 404.27 151.878L403.945 152.63C393.494 148.132 379.956 147.331 368.992 147.667C363.517 147.834 358.698 148.284 355.248 148.692C353.523 148.897 352.141 149.09 351.191 149.233C350.716 149.304 350.349 149.362 350.101 149.403C349.977 149.423 349.883 149.439 349.82 149.45C349.788 149.455 349.765 149.459 349.749 149.462L349.727 149.465L349.726 149.466ZM293.369 148.771C293.369 148.832 293.37 148.924 293.371 149.062C293.375 149.472 293.375 149.472 293.375 149.472L293.344 149.472L293.249 149.473C293.199 149.474 293.136 149.475 293.059 149.476C293.004 149.477 292.943 149.478 292.875 149.479C292.546 149.484 292.061 149.494 291.439 149.509C290.195 149.539 288.4 149.594 286.199 149.689C281.797 149.879 275.773 150.232 269.283 150.886C262.792 151.539 255.842 152.492 249.586 153.88C243.321 155.269 237.792 157.086 234.116 159.449L233.672 158.76C237.474 156.316 243.12 154.474 249.409 153.079C255.707 151.682 262.692 150.726 269.201 150.07C275.71 149.415 281.751 149.06 286.164 148.87C288.37 148.775 290.17 148.72 291.419 148.69C292.044 148.674 292.53 148.665 292.861 148.66C292.966 148.658 293.055 148.656 293.127 148.655C293.17 148.655 293.207 148.654 293.238 148.654L293.334 148.653L293.367 148.652C293.367 148.652 293.367 148.652 293.369 148.771ZM352.726 152.63C352.726 152.63 352.725 152.63 352.888 152.254C353.05 151.878 353.051 151.878 353.051 151.878L353.086 151.893C353.109 151.903 353.144 151.918 353.189 151.938C353.281 151.978 353.417 152.038 353.594 152.117C353.949 152.275 354.471 152.509 355.139 152.818C356.477 153.434 358.402 154.344 360.758 155.52C365.468 157.871 371.899 161.288 378.782 165.549C392.528 174.058 408.153 185.978 415.414 199.549L414.691 199.936C407.54 186.57 392.082 174.746 378.35 166.246C371.493 162.001 365.085 158.596 360.391 156.253C358.044 155.081 356.126 154.175 354.796 153.562C354.131 153.255 353.612 153.022 353.261 152.866C353.085 152.788 352.951 152.729 352.861 152.689C352.816 152.669 352.782 152.655 352.759 152.645L352.734 152.634L352.727 152.631L352.726 152.63ZM293.407 153.442C293.407 153.442 293.408 153.442 293.371 153.85C293.335 154.258 293.334 154.258 293.334 154.258L293.323 154.257L293.286 154.254C293.253 154.251 293.203 154.247 293.137 154.243C293.005 154.233 292.807 154.22 292.548 154.206C292.03 154.179 291.267 154.148 290.295 154.137C288.349 154.115 285.563 154.17 282.206 154.481C275.489 155.102 266.501 156.743 257.398 160.822C248.298 164.898 239.086 171.409 231.907 181.77C224.729 192.13 219.568 206.366 218.607 225.92L217.788 225.88C218.755 206.198 223.954 191.809 231.233 181.303C238.511 170.798 247.851 164.2 257.063 160.074C266.271 155.948 275.353 154.291 282.13 153.664C285.519 153.351 288.334 153.295 290.304 153.317C291.289 153.329 292.063 153.36 292.591 153.388C292.856 153.402 293.059 153.415 293.196 153.425C293.265 153.43 293.317 153.434 293.353 153.437L293.393 153.44L293.404 153.441L293.407 153.442ZM298.541 156.94C298.541 156.94 298.541 156.94 298.708 157.314C298.874 157.689 298.874 157.689 298.874 157.689L298.872 157.69L298.846 157.701C298.827 157.71 298.798 157.723 298.76 157.74C298.684 157.774 298.571 157.825 298.422 157.893C298.126 158.029 297.688 158.231 297.126 158.496C296.003 159.027 294.383 159.811 292.399 160.821C288.431 162.843 283.011 165.771 277.2 169.398C265.56 176.663 252.426 186.689 246.21 197.801L245.494 197.401C251.82 186.093 265.113 175.976 276.766 168.702C282.601 165.06 288.043 162.12 292.026 160.091C294.018 159.076 295.646 158.289 296.776 157.755C297.341 157.488 297.781 157.285 298.081 157.148C298.231 157.079 298.346 157.027 298.423 156.992C298.462 156.975 298.491 156.962 298.511 156.953L298.534 156.943L298.539 156.94L298.541 156.94ZM349.428 157.655C349.428 157.655 349.427 157.655 349.655 157.314C349.882 156.973 349.883 156.974 349.883 156.974L349.891 156.979L349.916 156.996C349.939 157.011 349.972 157.033 350.015 157.063C350.058 157.092 350.111 157.127 350.174 157.17C350.239 157.214 350.315 157.266 350.401 157.325C350.739 157.556 351.235 157.899 351.87 158.345C353.138 159.239 354.96 160.549 357.172 162.216C361.597 165.551 367.588 170.318 373.857 176.046C386.375 187.486 400.066 202.82 404.502 218.274L403.713 218.5C399.346 203.282 385.81 188.08 373.303 176.651C367.059 170.945 361.088 166.194 356.678 162.871C354.474 161.209 352.66 159.904 351.397 159.015C350.766 158.571 350.273 158.23 349.938 158.001C349.837 157.932 349.75 157.873 349.678 157.824C349.631 157.792 349.59 157.765 349.557 157.742C349.514 157.713 349.481 157.691 349.459 157.677L349.435 157.66L349.429 157.656L349.428 157.655Z" fill="#D6D6D6"/>
<path d="M302.408 146.065C304.095 141.508 309.536 135.75 319.857 135.75C330.179 135.75 336.139 142.406 336.879 147.038C337.862 153.188 340.151 165.527 320.13 165.527C301.824 165.527 299.871 152.916 302.408 146.065Z" fill="black"/>
<path d="M320.831 171.989C308.328 171.989 301.862 162.374 301.862 162.374C301.862 162.374 312.184 165.878 320.831 165.878C328.544 165.878 339.06 161.246 339.06 161.246C339.06 161.246 334.503 171.989 320.831 171.989Z" fill="black"/>
</g>
<defs>
<clipPath id="clip0_521_71">
<rect width="533" height="533" fill="white"/>
</clipPath>
</defs>
</svg>