<svg width="550" height="550" viewBox="0 0 550 550" fill="none" xmlns="http://www.w3.org/2000/svg">
<path fill-rule="evenodd" clip-rule="evenodd" d="M472.242 320.355C480.631 322.776 487.927 324.882 500.09 321.565C503.185 320.72 506.37 321.173 509.429 321.608C513.782 322.227 517.877 322.809 521.09 319.565C521.282 319.37 521.474 319.178 521.664 318.987C524.504 316.144 526.92 313.725 525.09 310.065C523.09 306.065 514.59 299.565 514.59 299.565C514.59 299.565 505.989 287.148 501.59 278.565C492.971 261.75 486.59 232.565 486.59 232.565C486.59 232.565 500.116 219.079 498.09 209.065C496.37 200.565 463.09 215.565 463.09 215.565C463.09 215.565 358.09 187.065 313.59 159.565C301.785 152.269 291.851 145.146 282.658 138.554C257.046 120.189 237.178 105.942 198.59 103.564C144.655 100.241 105.448 111.05 68.5897 150.565C45.4377 175.385 37.7369 206.128 29.5809 238.688C28.7605 241.963 27.9355 245.257 27.0897 248.565C17.8353 284.756 41.0897 447.065 62.0897 447.065C74.3937 447.065 76.72 437.26 79.4706 425.667C79.8288 424.157 80.1941 422.617 80.5896 421.065C84.3335 406.369 75.5897 383.065 75.5897 383.065C77.8352 375.352 79.2124 366.833 80.5896 358.315C81.9669 349.796 83.3441 341.277 85.5896 333.565L104.09 430.065C104.09 430.065 132.09 435.065 145.09 429.565C148.327 428.195 145.59 419.065 145.59 419.065C144.418 417.698 142.504 417.506 140.59 417.315C138.675 417.123 136.761 416.931 135.59 415.565L159.09 352.065C159.09 352.065 162.59 399.065 174.09 424.565C178.262 433.815 186.456 437.022 196.59 437.565C224.59 439.065 278.09 436.565 278.09 436.565C278.09 436.565 285.293 424.828 280.09 424.565C240.59 422.565 223.09 415.565 223.09 415.565L250.09 327.565C250.09 327.565 308.022 436.641 325.59 439.065C340.09 441.065 355.59 439.065 355.59 439.065C355.59 439.065 366.967 433.565 365.59 430.065C363.551 424.885 357.331 426.095 351.106 427.307C344.884 428.518 338.656 429.73 336.59 424.565C329.59 407.065 321.069 383.235 332.09 360.565C343.782 336.512 362.222 331.623 387.12 325.023L387.59 324.898C389.229 324.463 390.895 324.021 392.59 323.565C409.25 319.078 429.343 317.068 446.59 316.565C457.957 316.233 465.457 318.397 472.242 320.355Z" fill="#555555"/>
<path d="M332.09 360.565C332.09 360.565 344.125 385.214 358.59 392.564C369.866 398.295 390.59 397.564 390.59 397.564C390.59 397.564 407.862 414.418 422.09 417.564C433.745 420.142 448.181 426.657 452.59 415.565C457.461 403.309 422.09 401.064 422.09 401.064C422.09 401.064 390.597 369.578 387.59 343.564C386.752 336.323 387.59 324.898 387.59 324.898L387.12 325.023C362.222 331.623 343.782 336.512 332.09 360.565Z" fill="#2D2D2D"/>
<path d="M58.0898 288.064C45.4906 285.426 25.5898 293.564 25.5898 293.564V282.064C25.5898 282.064 45.7605 277.496 58.0898 280.564C69.3715 283.372 84.0898 295.064 84.0898 295.064V304.064C84.0898 304.064 69.7589 290.508 58.0898 288.064Z" fill="#C4C4C4"/>
<path fill-rule="evenodd" clip-rule="evenodd" d="M515.5 301C505.932 295.533 490.59 287.064 490.59 287.064C488.735 305.022 452.5 316.909 452.5 316.909C452.5 316.909 472.455 321.813 486.09 323.064C497.21 324.085 505.043 321.145 506.59 320.564L506.35 320.653C506.462 320.61 506.542 320.58 506.59 320.564C506.59 320.564 506.59 319 506.47 316.909C505.849 313.93 504.988 309.793 506.59 307.064C508.948 303.048 510.925 301.876 515.5 301Z" fill="#C4C4C4"/>
<path d="M515.5 301C510.925 301.876 508.948 303.048 506.59 307.064C504.988 309.793 505.849 313.93 506.47 316.909C506.59 319 506.59 320.564 506.59 320.564C506.59 320.564 514.256 323.438 518.5 321.5C522.551 319.651 525.109 316.936 525.5 312.5C526.03 306.484 521.539 301.036 515.5 301Z" fill="#1D1D1D"/>
<path d="M413.59 253.564C413.59 253.564 404.45 215.167 420.59 212.064C432.399 209.795 446.59 228.564 446.59 228.564C446.59 228.564 430.68 213.5 420.59 217.5C410.5 221.5 413.59 253.564 413.59 253.564Z" fill="#1D1D1D"/>
<path d="M452.5 316.909C452.5 316.909 488.735 305.022 490.59 287.064C486.907 279.01 482.832 272.89 478 269.438C469.596 263.433 458.903 265.5 444 279.5C427.5 295 426.09 317.564 426.09 317.564L452.5 316.909Z" fill="#2D2D2D"/>
<path d="M490.59 287.064C490.59 287.064 505.932 295.533 515.5 301C507 293.935 485.75 235.5 486.5 232.5C487 230.5 502.5 216.5 498 208.5C494.444 202.179 463 215.5 463 215.5L478 269.438C482.832 272.89 486.907 279.01 490.59 287.064Z" fill="#2D2D2D"/>
<path d="M63.0898 412.064C55.9868 413.035 47.0898 421.064 47.0898 421.064L41.0898 399.564C41.0898 399.564 52.3589 391.506 60.5898 391.564C69.4132 391.628 81.0898 401.064 81.0898 401.064V416.564C81.0898 416.564 70.2689 411.083 63.0898 412.064Z" fill="#C4C4C4"/>
<path d="M59.0898 361.064C48.4619 361.881 35.0898 374.064 35.0898 374.064L32.5898 359.564C32.5898 359.564 47.1982 344.608 59.0898 344.564C68.3724 344.53 81.0898 353.564 81.0898 353.564L78.5898 365.564C78.5898 365.564 66.8823 360.466 59.0898 361.064Z" fill="#C4C4C4"/>
<path d="M60.5898 315.064C46.281 313.783 29.0898 334.064 29.0898 334.064L27.0898 319.064C27.0898 319.064 47.8119 300.165 63.0898 302.564C72.8517 304.098 85.0898 315.064 85.0898 315.064V331.064C85.0898 331.064 71.9717 316.083 60.5898 315.064Z" fill="#C4C4C4"/>
<path d="M474.09 272.565C476.375 274.834 475.59 279.565 475.59 279.565C475.59 279.565 467.511 282.143 465.09 279.565C462.669 276.988 464.09 271.565 464.09 271.565C464.09 271.565 471.306 269.799 474.09 272.565Z" fill="black"/>
<circle cx="469.59" cy="274.564" r="1.5" fill="white"/>
<path d="M472.5 249.5L478.498 269C478.498 269 469.73 266.062 463.498 267.5C450.5 270.5 434 292 434 292C434 292 435.591 272.649 443 264.5C452.09 254.5 472.5 249.5 472.5 249.5Z" fill="#C4C4C4"/>
</svg>