<svg width="388" height="545" viewBox="0 0 388 545" fill="none" xmlns="http://www.w3.org/2000/svg">
<path d="M349.21 509.754C358.809 514.776 379.665 523.208 386.478 513.552C391.323 506.684 383.619 484.55 377.099 475.648C359.52 485.163 347.781 488.635 349.21 509.754Z" fill="#1D1D1D"/>
<path d="M368.317 465.65C368.317 465.65 326.745 467.916 336.752 503.015C336.752 503.015 340.633 507.424 349.21 509.754C347.781 488.635 359.52 485.163 377.099 475.648C372.612 469.521 370.833 468.106 368.317 465.65Z" fill="#C4C4C4"/>
<path d="M339.879 443.817C313.992 454.448 306.526 479.733 306.526 479.733C307.692 480.776 309.53 482.347 312.245 484.226C314.733 485.948 317.905 488.198 318.984 489.127C318.076 459.106 351.57 452.61 351.57 452.61C349.684 450.876 346.332 448.738 344.38 447.424C342.43 446.113 341.88 445.626 339.879 443.817Z" fill="#C4C4C4"/>
<path d="M318.485 423.106C318.485 423.106 287.234 439.704 282.223 456.246C284.598 458.591 288.311 461.606 290.801 464.007C290.801 464.007 297.651 451.595 305.823 445.246C314.292 438.667 328.493 432.76 328.493 432.76C326.417 430.872 325.447 429.488 323.682 428.028C321.591 426.298 320.959 425.438 318.485 423.106Z" fill="#C4C4C4"/>
<path d="M287.488 392.407C266.203 398.738 251.742 429.78 251.742 429.78C251.742 429.78 255.36 432.55 257.421 434.658C258.162 435.415 258.924 436.195 259.706 436.995L259.718 437.007L259.739 437.029L259.809 437.101C261.074 438.395 263.819 440.587 265.182 441.979C274.371 426.457 300.879 405.218 300.879 405.218C296.763 400.997 291.325 396.762 287.488 392.407Z" fill="#C4C4C4"/>
<path d="M143.651 476.261C143.651 476.261 108.016 473.81 102.397 476.261C96.7769 478.712 97.4952 488.997 102.397 490.557C106.89 491.986 151.426 498.93 151.426 498.93L143.651 476.261Z" fill="#C4C4C4"/>
<path d="M40.7197 49.1363C38.2158 56.2029 40.1067 68.2127 40.1067 68.2127C40.1067 68.2127 50.5224 54.8547 57.2621 58.5308C60 60.0241 62 64 62 64C62 64 67.6778 51.3826 70.7412 53.4248C70.7412 53.4248 64.5079 43.7966 57.2621 43.4179C51.1537 43.0986 40.7197 49.1363 40.7197 49.1363Z" fill="#C4C4C4"/>
<path d="M70.7412 53.4248C73.1922 55.0587 71.9664 66.6998 71.9664 66.6998C71.9664 66.6998 76.0717 65.7255 81.9736 66.6998C101.638 69.9461 113.833 84.4675 117.305 100.193L105.868 124.784C105.868 124.784 128.121 128.1 142.221 121.925C142.221 121.925 145.792 105.751 142.221 95.0874C137.279 80.3272 125.885 73.8232 113.017 65.0661C100.584 56.6056 96.9945 50.6538 81.9736 51.3828C77.5204 51.5989 70.7412 53.4248 70.7412 53.4248Z" fill="#C4C4C4"/>
<path d="M40.9389 100.685C41.7558 104.77 48.6995 106.812 48.6995 106.812C48.6995 106.812 55.3849 106.621 57.2771 102.932C58.7694 100.022 58.0788 95.0874 58.0788 95.0874L47.0505 88.3479C47.0505 88.3479 43.4762 90.1631 41.5515 92.9243C40.9381 93.8044 40.6534 94.9119 40.5503 96.0124C40.3299 98.3647 40.9389 100.685 40.9389 100.685Z" fill="black"/>
<path d="M40.1067 85.8974C40.1067 85.8974 50.5226 77.9325 52.9734 79.7705C54.7101 81.0731 47.0505 88.3479 47.0505 88.3479L58.0788 95.0874C58.0788 95.0874 56.6008 85.256 61.1425 82.8338C63.9574 81.3325 69.1072 82.221 69.1072 82.221C69.1072 82.221 73.8384 97.3889 81.9736 99.3762C92.5937 101.971 117.305 100.193 117.305 100.193C113.833 84.4675 101.638 69.9461 81.9736 66.6998C76.0717 65.7255 71.9664 66.6998 71.9664 66.6998C71.9664 66.6998 73.1922 55.0587 70.7412 53.4248C67.6778 51.3826 62 64 62 64C62 64 60 60.0241 57.2621 58.5308C50.5224 54.8547 40.1067 68.2127 40.1067 68.2127V85.8974Z" fill="#2D2D2D"/>
<path d="M52.9734 79.7705C50.5226 77.9325 40.1067 85.8974 40.1067 85.8974C40.1067 85.8974 40.2302 91.0664 40.5503 96.0124C40.6534 94.9119 40.9381 93.8044 41.5515 92.9243C43.4762 90.1631 47.0505 88.3479 47.0505 88.3479C47.0505 88.3479 54.7101 81.0731 52.9734 79.7705Z" fill="#C4C4C4"/>
<path d="M55.2196 114.164C55.2196 114.164 65.4863 115.234 69.3265 116.002C82.6014 118.657 105.868 124.784 105.868 124.784L117.305 100.193C117.305 100.193 92.5937 101.971 81.9736 99.3762C73.8384 97.3889 69.1072 82.221 69.1072 82.221C69.1072 82.221 63.9574 81.3325 61.1425 82.8338C56.6008 85.256 58.0788 95.0874 58.0788 95.0874C58.0788 95.0874 58.7694 100.022 57.2771 102.932C55.3849 106.621 48.6995 106.812 48.6995 106.812L55.2196 114.164Z" fill="#C4C4C4"/>
<path d="M117.305 34.0231L71.9664 22.5863L50.5224 34.0231C50.5224 34.0231 43.7589 40.5587 40.7197 49.1363C40.7197 49.1363 51.1537 43.0986 57.2621 43.4179C64.5079 43.7966 70.7412 53.4248 70.7412 53.4248C70.7412 53.4248 77.5204 51.5989 81.9736 51.3828C96.9945 50.6538 100.584 56.6056 113.017 65.0661C125.885 73.8232 137.279 80.3272 142.221 95.0874C145.792 105.751 142.221 121.925 142.221 121.925C150.257 118.405 163.256 111.305 163.256 111.305C163.256 111.305 160.928 95.2692 157.349 85.8974C153.212 75.0626 142.221 61.3897 142.221 61.3897C142.221 61.3897 122.406 62.2755 117.305 53.4248C113.522 46.8602 117.305 34.0231 117.305 34.0231Z" fill="#555555"/>
<path d="M142.221 27.0796C135.89 22.3821 117.305 34.0231 117.305 34.0231C117.305 34.0231 113.522 46.8602 117.305 53.4248C122.406 62.2755 142.221 61.3897 142.221 61.3897C142.221 61.3897 148.552 31.7771 142.221 27.0796Z" fill="#C4C4C4"/>
<path d="M50.5224 0.733877C44.3953 6.2478 50.5224 34.0231 50.5224 34.0231L71.9664 22.5863C71.9664 22.5863 56.6495 -4.78004 50.5224 0.733877Z" fill="#C4C4C4"/>
<path fill-rule="evenodd" clip-rule="evenodd" d="M282.223 456.246C278.438 452.509 268.587 445.428 265.182 441.979C274.371 426.457 300.879 405.218 300.879 405.218C302.298 406.672 303.833 408.267 305.426 409.922L305.427 409.924L305.428 409.924L305.429 409.925L305.43 409.927C309.746 414.411 314.487 419.337 318.485 423.106C318.485 423.106 287.234 439.704 282.223 456.246ZM328.493 432.76C328.493 432.76 314.292 438.667 305.823 445.246C297.651 451.595 290.801 464.007 290.801 464.007C296.241 469.253 300.742 474.553 306.526 479.733C306.526 479.733 313.992 454.448 339.879 443.817C338.378 442.46 336.865 440.634 335.343 438.797C333.817 436.955 330.034 434.163 328.493 432.76ZM326.337 495.458C324.371 493.617 321.916 491.652 318.984 489.127C318.076 459.106 351.57 452.61 351.57 452.61C355.875 456.566 364.482 461.906 368.317 465.65C368.317 465.65 326.745 467.916 336.752 503.015C331.609 499.482 327.863 496.888 326.337 495.458Z" fill="#1D1D1D"/>
<path d="M17.5432 255.694C17.5432 255.694 36.3322 236.701 43.4802 232.004C43.4802 232.004 46.7981 228.439 49.1986 226.694C53.6916 223.426 62.4735 223.834 62.4735 223.834C74.2063 219.884 82.4251 216.956 86.4817 206.679C95.672 183.397 69.3265 116.002 69.3265 116.002C65.4863 115.234 55.2196 114.164 55.2196 114.164C55.2196 114.164 61.0437 161.953 55.9382 186.665C54.3849 194.183 44.2731 196.069 38.9873 199.94C33.5698 203.906 29.7928 206.224 25.811 213.011C15.7203 230.209 17.5432 255.694 17.5432 255.694Z" fill="#C4C4C4"/>
<path fill-rule="evenodd" clip-rule="evenodd" d="M192.461 198.51C179.701 164.696 163.256 111.305 163.256 111.305C163.256 111.305 150.257 118.405 142.221 121.925C128.121 128.1 105.868 124.784 105.868 124.784C105.868 124.784 82.6014 118.657 69.3265 116.002C69.3265 116.002 95.672 183.397 86.4817 206.679C82.4251 216.956 74.2063 219.884 62.4735 223.834C56.4649 225.857 45.8713 230.432 43.4802 232.004C36.3322 236.701 17.5432 255.694 17.5432 255.694C17.5432 255.694 -7.95379 280.935 2.5287 287.35C18.8821 297.357 42.8565 262.315 47.769 258.757C53.6916 254.469 66.4674 253.856 66.4674 253.856C66.4674 253.856 101.855 325.42 114.65 372.105C117.602 382.875 118.87 391.777 120.108 400.47C121.595 410.916 123.039 421.059 127.312 433.782C132.021 447.801 143.651 476.261 143.651 476.261L151.426 498.93L160.095 518.128C160.095 518.128 107.911 516.698 111.382 532.016C112.845 538.466 118.207 543.057 125.883 544.065C146.101 546.72 189.124 537.81 194.095 522.213C197.37 511.934 199.084 496.909 200.757 482.249C202.108 470.401 203.433 458.792 205.532 450.12C209.092 435.416 231.469 410.933 244.948 423.162C246.67 424.724 251.742 429.78 251.742 429.78C251.742 429.78 266.203 398.738 287.488 392.407C269.539 372.029 255.366 350.217 251.687 327.379C245.951 291.764 233.87 272.845 220.607 252.075C211.206 237.352 201.211 221.699 192.461 198.51Z" fill="#555555"/>
<path d="M55.2364 73.2974C56.988 73.2974 58.2372 72.7262 58.9613 71.573C59.6147 70.5323 59.7083 69.1972 59.7083 68.0087C59.7083 66.8334 59.6206 65.5568 58.9248 64.5942C58.1651 63.5433 56.9021 63.1279 55.2364 63.1279C53.5752 63.1279 52.329 63.5428 51.621 64.6368C51.2953 65.1401 51.1409 65.7077 51.0613 66.2604C50.9819 66.8113 50.9688 67.4112 50.9688 68.0087C50.9688 69.1548 51.005 70.4925 51.5888 71.5313C51.9023 72.0889 52.3641 72.5506 53.006 72.8607C53.6309 73.1627 54.3765 73.2974 55.2364 73.2974Z" fill="black" stroke="black" stroke-width="2"/>
<path d="M86.2788 80.4447C87.8647 80.4447 89.315 80.2172 90.3963 79.5505C91.5632 78.8311 92.1803 77.6759 92.1803 76.1774C92.1803 74.6983 91.5832 73.4708 90.4651 72.6462C89.3881 71.8518 87.9254 71.501 86.2788 71.501C84.6453 71.501 83.3374 71.847 82.4701 72.7637C81.6122 73.6706 81.3984 74.9156 81.3984 76.1774C81.3984 77.4302 81.6081 78.6303 82.5345 79.4487C83.4191 80.2303 84.7228 80.4447 86.2788 80.4447Z" fill="black" stroke="black" stroke-width="2"/>
<path d="M56.9291 66.4048C57.3493 67.5007 57.5515 68.0282 56.0191 68.6157C54.6571 69.1379 53.1268 66.9581 52.9556 66.0213C52.8056 65.2009 53.3375 64.6778 54.2583 64.5321C54.9945 64.4156 56.4066 65.042 56.9291 66.4048Z" fill="white"/>
<path d="M88.5252 74.1349C88.7294 74.3392 88.9336 76.1772 88.321 76.7898C87.9125 77.1983 86.0744 77.1261 85.4617 76.7898C84.9446 76.506 84.7429 73.8061 85.8708 73.8061C86.9987 73.8061 88.1167 73.7264 88.5252 74.1349Z" fill="white"/>
<path d="M54.6093 30.7976C54.4947 30.2515 54.3624 29.6021 54.221 28.8725C53.7758 26.5746 53.2439 23.4967 52.8902 20.3531C52.5344 17.1911 52.3688 14.0437 52.622 11.5765C52.749 10.3398 52.9735 9.3584 53.28 8.65662C53.5869 7.95402 53.9066 7.68146 54.1465 7.57905C54.391 7.47471 54.756 7.44201 55.355 7.68375C55.9714 7.93255 56.7117 8.42786 57.5521 9.18285C59.229 10.6893 61.0243 12.9717 62.6992 15.4179C64.3618 17.8463 65.8542 20.3593 66.9339 22.2719C67.3389 22.9892 67.6845 23.6199 67.958 24.1272L54.6093 30.7976Z" fill="#1D1D1D" stroke="#1D1D1D" stroke-width="3"/>
<path d="M140.397 31.33C138.241 26.2273 118.061 37.453 118.061 37.453C118.061 37.453 115.215 46.8421 118.845 53.4183C123.738 62.2846 138.241 60.9251 138.241 60.9251C138.241 60.9251 142.552 36.4326 140.397 31.33Z" fill="#1D1D1D" stroke="#1D1D1D" stroke-width="3"/>
</svg>