<svg width="1368" height="2058" viewBox="0 0 1368 2058" fill="none" xmlns="http://www.w3.org/2000/svg">
<path d="M1126.36 670.062C1131.23 721.222 1082.5 548.752 1064.54 495.582L1169.36 462.753C1091.27 583.072 1166.19 589.738 1189.19 615.901C1205.43 634.383 1210.85 645.565 1210.85 663.729C1210.85 683.727 1193.25 632.054 1169.36 618.734C1150.52 608.236 1219.35 685.393 1203.69 715.39C1201.83 718.935 1157.36 610.88 1157.36 635.232C1157.36 637.565 1192.02 732.259 1180.85 725.388C1176.52 722.722 1142.78 621.439 1138.19 637.899C1130.86 664.229 1162.95 700.225 1157.36 723.722C1148.25 762.033 1120.4 618.901 1117.2 639.232C1115.7 648.731 1124.72 652.786 1126.36 670.062Z" fill="#D9D9D9" stroke="#D9D9D9" stroke-width="4"/>
<path d="M889.223 981.691C889.223 981.691 896.389 637.399 951.882 569.74C1013.38 494.764 1153.6 513.188 1231.35 426.757C1272.61 380.884 1297.17 294.939 1297.17 294.939L1040.71 380.263L620.422 597.07L792.568 831.376L816.399 864.538L889.223 981.691Z" fill="#9F9F9F"/>
<path d="M928.884 74.9658C928.884 74.9658 747.9 76.4659 654.416 120.46C524.94 181.393 410.817 319.576 416.778 446.588C432.109 773.216 478.271 1073.68 478.271 1355.98C478.271 1383.83 500.11 1410.56 527.765 1407.31C556.11 1403.97 560.849 1371.62 562.761 1343.15C577.873 1118.01 634.252 720.889 634.252 720.889L873.39 531.911L928.884 74.9658Z" fill="#9F9F9F"/>
<path d="M24.5 44C408 253 538.272 453.5 721.5 782.5C831.521 980.052 867.998 1024.44 924.5 1242C956.704 1366 1023 2052.5 1023 2052.5" stroke="black" stroke-width="100"/>
<path d="M724.41 709.224C724.41 709.224 724.873 540.827 720.909 480.085C709.74 308.938 728.91 479.917 682.581 299.606C638.332 127.39 863.893 63.8007 993.544 48.1356C1045.68 41.8358 1120.03 63.8008 1120.03 63.8008L1084.7 380.763L843.228 601.404C795.899 665.396 791.063 736.721 799.733 774.884C805.93 802.164 806.065 835.376 789.401 851.708C786.313 854.734 791.404 758.313 785.901 764.053C778.072 772.219 789.901 821.045 768.07 835.71C763.141 839.021 775.569 754.386 769.736 762.385C758.448 777.866 768.57 807.797 749.405 813.546C742.573 815.596 769.112 721.39 754.072 735.222C745.736 742.888 741.902 779.382 733.407 778.384C721.922 777.033 746.447 732.145 729.909 717.723C725.125 713.551 724.41 709.224 724.41 709.224Z" fill="#D9D9D9"/>
<path d="M926.055 256.944C926.055 162.996 1033.85 65.1083 1128.49 64.891C1135.08 64.8759 1141.61 65.3341 1148.03 66.2999C1245.52 80.9649 1308.06 202.617 1314.51 256.944C1321.65 317.103 1085.54 407.259 1085.54 407.259C1085.54 407.259 1066.17 396.857 1040.93 380.566C993.749 350.109 926.055 299.07 926.055 256.944Z" fill="#414141"/>
<path d="M1210.35 121.128C1210.35 121.128 1250.19 70.8005 1278.18 79.6328C1320.34 92.9326 1278.18 187.228 1278.18 187.228L1210.35 121.128Z" fill="#9F9F9F"/>
<path d="M965.05 176.121C965.05 176.121 919.055 111.732 944.886 90.9643C978.548 63.9 1022.31 128.949 1022.31 128.949L965.05 176.121Z" fill="#9F9F9F"/>
<path d="M982.214 183.787C982.214 183.787 924.191 121.384 952.384 99.9636C982.214 77.2997 1028.54 145.625 1028.54 145.625L982.214 183.787Z" fill="#414141"/>
<path d="M1207.52 140.125C1207.52 140.125 1241.43 79.9666 1274.68 86.6318C1317.07 95.1283 1267.35 193.786 1267.35 193.786L1207.52 140.125Z" fill="#414141"/>
<path d="M1051.04 252.945C1061.76 252.98 1072.41 257.345 1074.03 267.943C1075.93 280.249 1061.62 288.875 1049.2 287.94C1037.82 287.083 1026.44 279.27 1027.87 267.943C1029.23 257.252 1040.26 252.909 1051.04 252.945Z" fill="black"/>
<path d="M1159.86 255.111C1148.77 255.762 1137.06 259.087 1135.69 270.109C1134.11 282.865 1150.53 288.752 1163.36 287.94C1175.06 287.2 1187.9 281.831 1187.52 270.109C1187.12 257.827 1172.13 254.39 1159.86 255.111Z" fill="black"/>
<path d="M1096.36 214.783C1096.74 233.598 1095.36 280.775 1065.54 248.279C1035.71 215.782 959.214 313.604 959.214 313.604C959.214 313.604 927.811 297.228 925.552 253.278C923.719 217.616 947.049 181.62 947.049 181.62C947.049 181.62 1095.17 155.063 1096.36 214.783Z" fill="#9F9F9F"/>
<path d="M1116.2 214.783C1115.1 231.815 1107.2 260.612 1124.03 257.778C1135.36 255.869 1137.08 248.474 1148.03 244.946C1189.19 231.671 1294.34 294.607 1294.34 294.607C1294.34 294.607 1313.99 276.507 1317.84 260.944C1323.98 236.107 1294.34 199.785 1294.34 199.785C1294.34 199.785 1120.61 146.04 1116.2 214.783Z" fill="#9F9F9F"/>
<path d="M1056.03 326.102C1051.11 324.864 1032.21 345.61 1033.03 363.431C1033.74 378.849 1052.2 395.927 1052.2 395.927L1144.52 391.427C1144.52 391.427 1166.19 379.55 1166.19 363.431C1166.19 341.1 1122.53 326.102 1111.7 332.268C1104.92 336.125 1105.86 344.766 1105.86 344.766H1068.86C1068.86 344.766 1080.53 332.268 1056.03 326.102Z" fill="#D9D9D9"/>
<path d="M1054.7 396.761C1054.7 396.761 1081.37 410.926 1105.03 405.926C1115.07 403.806 1139.53 392.595 1139.53 392.595L1054.7 396.761Z" fill="#414141"/>
<circle cx="1042.54" cy="261.944" r="2.99964" fill="white"/>
<ellipse cx="1169.36" cy="264.61" rx="3.16629" ry="2.66635" fill="white"/>
<path d="M1133.69 350.766C1188.13 322.61 1325.34 361.264 1343.67 277.941M1133.69 361.265C1196.02 350.766 1339.84 377.763 1366 321.936M1140.19 369.264C1236.02 358.966 1316.84 464.419 1358.17 394.761M1140.19 377.763C1163.86 403.926 1246.51 467.586 1278.01 467.586M1041.21 341.6C965.715 333.102 930.219 356.766 865.227 304.272M1041.21 350.766C988.712 350.766 948.55 355.432 898.056 341.6M1041.21 369.264C995.719 352.939 910.555 365.764 871.892 394.761M1045.71 383.596C983.379 369.264 928.886 400.26 898.056 443.422" stroke="white" stroke-width="4"/>
<path d="M1106.92 344.601H1068.76C1068.76 344.601 1050.34 360.326 1055.43 374.097C1060.61 388.141 1076.68 400.411 1091.59 399.094C1106.57 397.771 1118.33 388.944 1120.75 374.097C1122.8 361.54 1106.92 344.601 1106.92 344.601Z" fill="black"/>
<path d="M664.099 614.068C676.18 604.746 701.746 600.57 701.746 605.736C701.746 610.902 689.414 615.815 689.414 627.233C689.414 631.899 725.843 602.737 729.576 613.235C731.294 618.068 708.16 635.895 711.412 644.565C712.911 648.564 739.075 628.567 745.241 634.899C749.764 639.545 735.742 658.938 735.742 664.896C735.742 669.228 743.765 656.308 752.74 659.23C758.739 661.183 746.241 692.392 731.076 701.558C673.846 736.148 576.311 786.252 560.755 760.218C545.919 735.387 631.921 638.899 664.099 614.068Z" fill="#414141" stroke="#414141" stroke-width="5"/>
<path d="M823.557 858.564L823.398 859.039C823.543 858.606 823.556 858.569 823.558 858.565H823.56C823.561 858.566 823.563 858.567 823.565 858.567C823.571 858.569 823.579 858.573 823.59 858.576C823.611 858.583 823.642 858.593 823.684 858.607C823.767 858.636 823.89 858.678 824.052 858.733C824.374 858.844 824.849 859.009 825.458 859.224C826.677 859.654 828.438 860.287 830.6 861.1C834.923 862.724 840.86 865.066 847.308 867.936C860.18 873.664 875.177 881.528 883.417 890.021C893.702 900.62 898.671 910.644 903.51 921.156C905.009 924.413 904.643 928.76 903.95 932.206C903.601 933.945 903.161 935.485 902.809 936.591C902.633 937.144 902.478 937.589 902.367 937.896C902.361 937.913 902.354 937.93 902.349 937.946C902.401 937.973 902.458 938.001 902.52 938.032C902.888 938.221 903.415 938.499 904.046 938.861C905.308 939.586 906.997 940.648 908.703 941.998C912.086 944.676 915.659 948.588 915.887 953.337C916.059 956.94 914.307 960.575 911.596 963.827C908.878 967.087 905.151 970.017 901.257 972.226C897.366 974.432 893.27 975.938 889.803 976.314C886.362 976.688 883.355 975.956 881.954 973.435C879.782 969.524 879.975 964.42 880.667 960.376C881.015 958.341 881.496 956.545 881.889 955.258C882.076 954.645 882.244 954.147 882.368 953.792C882.043 953.755 881.607 953.701 881.09 953.624C879.921 953.451 878.329 953.165 876.64 952.714C874.952 952.263 873.152 951.643 871.574 950.796C870.002 949.952 868.609 948.86 867.793 947.445C866.204 944.69 866.227 940.71 866.604 937.519C866.794 935.905 867.079 934.459 867.316 933.416C867.423 932.948 867.52 932.561 867.595 932.275C867.458 932.254 867.299 932.232 867.123 932.201C866.488 932.091 865.617 931.919 864.675 931.67C863.734 931.421 862.711 931.092 861.777 930.666C860.849 930.243 859.974 929.709 859.358 929.034C854.052 923.214 854.042 917.315 855.374 912.889C856.037 910.687 857.029 908.852 857.854 907.57C858.08 907.218 858.294 906.907 858.486 906.641C858.361 906.66 858.228 906.68 858.089 906.698C856.998 906.841 855.483 906.921 853.781 906.674C850.361 906.176 846.213 904.351 843.293 899.111C839.549 892.395 834.462 882.429 830.313 874.148C828.239 870.007 826.398 866.284 825.075 863.597C824.414 862.253 823.883 861.169 823.517 860.42C823.334 860.046 823.192 859.755 823.096 859.559C823.048 859.46 823.011 859.384 822.986 859.334C822.974 859.309 822.964 859.29 822.958 859.277C822.955 859.271 822.953 859.266 822.951 859.263C822.95 859.261 822.95 859.26 822.949 859.259V859.258L822.428 858.187L823.557 858.564Z" fill="#414141" stroke="#414141"/>
<path d="M480.607 1368.81C481.095 1338.23 558.443 1338.23 558.931 1368.81C559.251 1388.9 540.434 1411.14 526.103 1411.14C502.716 1411.14 480.235 1392.2 480.607 1368.81ZM477.327 1329.47C477.327 1329.47 473.783 1272.67 524.822 1280.86C574.716 1288.87 564.931 1329.47 564.931 1329.47C564.931 1329.47 561.883 1310.25 524.822 1309.19C491.967 1308.25 477.327 1329.47 477.327 1329.47ZM475.606 1261.69C475.606 1261.69 472.062 1187.02 523.102 1195.21C572.959 1203.21 572.096 1268.27 572.095 1268.36C572.066 1268.27 560.116 1228.93 523.101 1227.87C490.245 1226.93 475.606 1261.69 475.606 1261.69ZM471.107 1152.34C484.823 1130.74 506.855 1093 539.1 1098.18C565.141 1102.36 572.144 1128.87 581.595 1143.67L577.762 1176C577.754 1175.94 571.803 1130.9 534.767 1129.84C501.963 1128.9 472.535 1171.53 472.441 1171.67L471.107 1152.34ZM463.609 1041.35C477.324 1019.76 507.856 986.563 540.101 991.736C566.142 995.914 584.978 1012.89 594.428 1027.69L592.761 1044.02C592.704 1043.95 577.093 1025.58 540.101 1024.53C507.303 1023.59 464.926 1055.24 464.776 1055.35L463.609 1041.35ZM456.775 954.027C470.491 932.434 507.355 899.734 539.6 904.908C565.641 909.086 596.307 926.563 605.758 941.362L602.925 966.066C602.84 965.978 576.6 938.753 539.6 937.696C506.744 936.757 456.775 969.526 456.775 969.526V954.027ZM448.777 869.871C462.559 855.022 508.881 822.831 531.935 826.53C554.229 830.107 601.266 859.928 614.258 873.204L611.758 890.201C611.589 890.089 568.922 861.749 531.935 860.692C499.112 859.754 450.375 890.14 450.277 890.201L448.777 869.871Z" fill="#414141"/>
</svg>